# Blender 3.6.1
# www.blender.org
mtllib fuel_pump_cover_plate.mtl
o Fuel_Pump_Cover_Plate
v -0.025000 0.000000 0.001250
v -0.025000 0.000000 -0.001250
v 0.000000 -0.020250 -0.001250
v 0.000000 0.020250 -0.001250
v 0.025000 0.000000 -0.001250
v 0.025000 0.000000 0.001250
v 0.000000 -0.020250 0.001250
v 0.000000 0.020250 0.001250
v 0.000000 0.020250 0.000000
v 0.000000 -0.020250 0.000000
v 0.000000 0.000000 0.001250
v 0.025000 0.000000 0.000000
v 0.000000 0.000000 -0.001250
v -0.025000 0.000000 0.000000
v -0.009000 0.018750 0.001250
v -0.025000 0.005850 0.001250
v -0.020314 0.013204 0.001250
v -0.025000 0.005850 -0.001250
v -0.009000 0.018750 -0.001250
v -0.020314 0.013204 -0.001250
v -0.025000 0.005850 0.000000
v -0.009000 0.018750 0.000000
v -0.020314 0.013204 0.000000
v -0.025000 -0.005850 0.001250
v -0.009000 -0.018750 0.001250
v -0.020314 -0.013204 0.001250
v -0.009000 -0.018750 -0.001250
v -0.025000 -0.005850 -0.001250
v -0.020314 -0.013204 -0.001250
v -0.025000 -0.005850 0.000000
v -0.009000 -0.018750 0.000000
v -0.020314 -0.013204 0.000000
v 0.009000 -0.018750 0.001250
v 0.025000 -0.005850 0.001250
v 0.020314 -0.013204 0.001250
v 0.025000 -0.005850 -0.001250
v 0.009000 -0.018750 -0.001250
v 0.020314 -0.013204 -0.001250
v 0.025000 -0.005850 0.000000
v 0.009000 -0.018750 0.000000
v 0.020314 -0.013204 0.000000
v 0.025000 0.005850 0.001250
v 0.009000 0.018750 0.001250
v 0.020314 0.013204 0.001250
v 0.009000 0.018750 -0.001250
v 0.025000 0.005850 -0.001250
v 0.020314 0.013204 -0.001250
v 0.025000 0.005850 0.000000
v 0.009000 0.018750 0.000000
v 0.020314 0.013204 0.000000
vn -0.0000 -0.0000 -1.0000
vn 1.0000 -0.0000 -0.0000
vn -0.0000 -0.0000 1.0000
vn -0.1644 0.9864 -0.0000
vn -1.0000 -0.0000 -0.0000
vn -0.1644 -0.9864 -0.0000
vn 0.1644 -0.9864 -0.0000
vn 0.1644 0.9864 -0.0000
vn -0.4402 0.8979 -0.0000
vn -0.8433 0.5374 -0.0000
vn -0.4402 -0.8979 -0.0000
vn -0.8433 -0.5374 -0.0000
vn 0.4402 -0.8979 -0.0000
vn 0.8433 -0.5374 -0.0000
vn 0.4402 0.8979 -0.0000
vn 0.8433 0.5374 -0.0000
vt 0.715934 0.276885
vt 0.715934 0.356874
vt 0.682383 0.457427
vt 0.601384 0.533260
vt 0.536950 0.553770
vt 0.536950 0.276885
vt 0.145433 0.998154
vt 0.080999 0.998154
vt 0.080999 0.775962
vt 0.145433 0.775962
vt 0.357967 0.276885
vt 0.357967 0.356874
vt 0.324416 0.457427
vt 0.243417 0.533260
vt 0.178983 0.553770
vt 0.178983 0.276885
vt 0.874649 0.331578
vt 0.934025 0.331578
vt 0.934025 0.553770
vt 0.874649 0.553770
vt 0.536950 0.000000
vt 0.357967 0.196896
vt 0.391518 0.096344
vt 0.472516 0.020510
vt 0.874649 0.109387
vt 0.934025 0.109387
vt 0.080999 0.553770
vt 0.145433 0.553770
vt 0.472516 0.533260
vt 0.391518 0.457427
vt 0.536950 0.711734
vt 0.536950 0.787581
vt 0.357967 0.787581
vt 0.357967 0.711734
vt 0.536950 0.635887
vt 0.357967 0.635887
vt 0.907764 0.775962
vt 0.841285 0.775962
vt 0.841285 0.553770
vt 0.907764 0.553770
vt 0.781908 0.775962
vt 0.781908 0.553770
vt 0.808170 0.109387
vt 0.808170 0.331578
vt 0.243417 0.020510
vt 0.324416 0.096344
vt 0.357967 0.196896
vt 0.178983 0.000000
vt 0.841285 0.998154
vt 0.781908 0.998154
vt 0.209867 0.998154
vt 0.209867 0.775962
vt 0.907764 0.998154
vt 0.601384 0.020510
vt 0.682383 0.096344
vt 0.715934 0.196896
vt 0.000000 0.276885
vt 0.000000 0.196896
vt 0.033551 0.096344
vt 0.114549 0.020510
vt 0.114549 0.533260
vt 0.033551 0.457427
vt 0.000000 0.356874
vt 0.536950 1.000000
vt 0.357967 1.000000
vt 0.357967 0.896156
vt 0.536950 0.896156
vt 0.715934 1.000000
vt 0.715934 0.896156
vt 0.715934 0.787581
vt 0.715934 0.711734
vt 1.000000 0.553770
vt 1.000000 0.775962
vt 0.536950 0.553770
vt 0.715934 0.553770
vt 0.715934 0.635887
vt 1.000000 0.998154
vt 0.357967 0.553770
vt 0.715934 0.998154
vt 0.715934 0.775962
vt 0.290865 0.775962
vt 0.290866 0.998154
vt 0.715934 0.553770
vt 0.290865 0.553770
vt 0.209867 0.553770
vt 0.808170 0.553770
vt 0.715934 0.553770
vt 0.715934 0.331578
vt 0.000000 0.775962
vt 0.000000 0.553770
vt 0.715934 0.109387
vt 0.000000 0.998154
s 0
usemtl Metal-Material
f 2/1/1 18/2/1 20/3/1 19/4/1 4/5/1 13/6/1
f 5/7/2 46/8/2 48/9/2 12/10/2
f 6/11/3 42/12/3 44/13/3 43/14/3 8/15/3 11/16/3
f 9/17/4 22/18/4 15/19/4 8/20/4
f 3/21/1 13/6/1 5/11/1 36/22/1 38/23/1 37/24/1
f 4/25/4 19/26/4 22/18/4 9/17/4
f 12/10/2 48/9/2 42/27/2 6/28/2
f 13/6/1 4/5/1 45/29/1 47/30/1 46/12/1 5/11/1
f 14/31/5 21/32/5 18/33/5 2/34/5
f 30/35/5 14/31/5 2/34/5 28/36/5
f 31/37/6 10/38/6 7/39/6 25/40/6
f 10/38/7 40/41/7 33/42/7 7/39/7
f 45/43/8 4/25/8 9/17/8 49/44/8
f 33/45/3 35/46/3 34/47/3 6/11/3 11/16/3 7/48/3
f 3/49/7 37/50/7 40/41/7 10/38/7
f 36/51/2 5/7/2 12/10/2 39/52/2
f 27/53/6 3/49/6 10/38/6 31/37/6
f 27/54/1 29/55/1 28/56/1 2/1/1 13/6/1 3/21/1
f 7/48/3 11/16/3 1/57/3 24/58/3 26/59/3 25/60/3
f 11/16/3 8/15/3 15/61/3 17/62/3 16/63/3 1/57/3
f 22/64/9 19/65/9 20/66/9 23/67/9
f 23/67/10 20/66/10 18/33/10 21/32/10
f 15/68/9 22/64/9 23/67/9 17/69/9
f 17/69/10 23/67/10 21/32/10 16/70/10
f 1/71/5 16/70/5 21/32/5 14/31/5
f 31/37/11 25/40/11 26/72/11 32/73/11
f 32/74/12 26/75/12 24/76/12 30/35/12
f 27/53/11 31/37/11 32/73/11 29/77/11
f 29/78/12 32/74/12 30/35/12 28/36/12
f 24/76/5 1/71/5 14/31/5 30/35/5
f 40/41/13 37/50/13 38/79/13 41/80/13
f 41/81/14 38/82/14 36/51/14 39/52/14
f 33/42/13 40/41/13 41/80/13 35/83/13
f 35/84/14 41/81/14 39/52/14 34/85/14
f 39/52/2 12/10/2 6/28/2 34/85/2
f 49/44/15 43/86/15 44/87/15 50/88/15
f 50/89/16 44/90/16 42/27/16 48/9/16
f 45/43/15 49/44/15 50/88/15 47/91/15
f 47/92/16 50/89/16 48/9/16 46/8/16
f 49/44/8 9/17/8 8/20/8 43/86/8
