# Blender 3.6.1
# www.blender.org
mtllib reverse_camera.mtl
o Reverse_Camera
v -0.015200 -0.006259 0.020859
v -0.020000 -0.011051 0.016324
v -0.017037 -0.008093 0.020596
v -0.018594 -0.009648 0.019642
v -0.019635 -0.010687 0.018142
v -0.015200 0.004306 0.020268
v -0.017037 0.006140 0.019800
v -0.018594 0.007695 0.018671
v 0.015200 -0.006259 0.020859
v 0.020000 -0.011051 0.016324
v 0.017037 -0.008093 0.020596
v 0.018594 -0.009648 0.019642
v 0.019635 -0.010687 0.018142
v 0.015200 0.004306 0.020268
v 0.017037 0.006140 0.019800
v 0.018594 0.007695 0.018671
v -0.020000 -0.018867 0.001997
v 0.020000 -0.018867 0.001997
v 0.020000 -0.011051 0.001175
v 0.020000 -0.011051 0.007413
v -0.020000 -0.011051 0.001175
v -0.015964 0.009098 0.015196
v -0.020000 0.005042 0.015423
v -0.017508 0.008789 0.015213
v -0.018818 0.007910 0.015263
v -0.019693 0.006594 0.015336
v -0.015597 0.008733 0.017055
v -0.019635 0.004674 0.017282
v -0.018595 0.007696 0.018670
v -0.017142 0.008425 0.017072
v -0.018452 0.007545 0.017121
v -0.019327 0.006228 0.017195
v 0.020000 0.005042 0.015423
v 0.015964 0.009098 0.015196
v 0.019693 0.006594 0.015336
v 0.018818 0.007910 0.015263
v 0.017508 0.008789 0.015213
v 0.019635 0.004674 0.017282
v 0.015597 0.008733 0.017055
v 0.018595 0.007696 0.018670
v 0.019327 0.006228 0.017195
v 0.018452 0.007545 0.017121
v 0.017142 0.008425 0.017072
v -0.020000 0.005043 0.003413
v -0.020000 -0.003190 0.000111
v -0.020000 0.003941 0.002379
v -0.020000 0.000927 0.001170
v -0.015804 0.007531 0.002305
v -0.015965 0.009098 0.004238
v -0.015884 0.008315 0.002681
v -0.015943 0.008888 0.003389
v -0.018182 0.005996 0.001991
v -0.019693 0.006595 0.003730
v -0.018937 0.006296 0.002269
v -0.019490 0.006515 0.002905
v -0.017651 0.006794 0.002154
v -0.018818 0.007911 0.003998
v -0.018235 0.007352 0.002485
v -0.018662 0.007761 0.003159
v -0.016872 0.007317 0.002261
v -0.017509 0.008790 0.004176
v -0.017191 0.008053 0.002628
v -0.017424 0.008592 0.003329
v 0.015804 0.007531 0.002305
v 0.015965 0.009098 0.004238
v 0.015884 0.008315 0.002681
v 0.015943 0.008888 0.003389
v 0.020000 -0.003190 0.000111
v 0.020000 0.005043 0.003413
v 0.020000 0.000927 0.001170
v 0.020000 0.003941 0.002379
v 0.016872 0.007317 0.002261
v 0.017509 0.008790 0.004176
v 0.017191 0.008053 0.002628
v 0.017424 0.008592 0.003329
v 0.017651 0.006794 0.002154
v 0.018818 0.007911 0.003998
v 0.018235 0.007352 0.002485
v 0.018662 0.007761 0.003159
v 0.018182 0.005996 0.001991
v 0.019693 0.006595 0.003730
v 0.018937 0.006296 0.002269
v 0.019490 0.006515 0.002905
v -0.019200 -0.011051 -0.001498
v -0.020000 -0.011051 -0.000685
v -0.020000 -0.010268 -0.001338
v -0.019766 -0.011051 -0.001260
v 0.020000 -0.011051 -0.000685
v 0.020000 -0.011051 -0.001498
v 0.019200 -0.011051 -0.001498
v 0.020000 -0.010268 -0.001338
v 0.020000 -0.011051 -0.001092
v -0.019200 -0.018888 0.000525
v -0.020000 -0.019225 0.001425
v -0.019766 -0.019307 0.000871
v 0.019200 -0.018888 0.000525
v 0.020000 -0.019225 0.001425
v 0.019766 -0.019307 0.000871
v 0.000000 0.003927 0.019374
v 0.000000 0.003643 0.018998
v 0.000000 0.003181 0.018653
v 0.000000 0.002559 0.018350
v 0.000000 0.001801 0.018101
v 0.000000 0.000937 0.017916
v 0.000000 -0.000001 0.017802
v 0.000000 -0.000977 0.017764
v 0.000000 -0.001952 0.017802
v 0.000000 -0.002890 0.017916
v 0.000000 -0.004512 0.018350
v 0.000000 -0.005134 0.018653
v 0.000190 0.003927 0.019381
v 0.000373 0.003643 0.019013
v 0.000542 0.003181 0.018674
v 0.000690 0.002559 0.018377
v 0.000811 0.001801 0.018133
v 0.000901 0.000937 0.017952
v 0.000957 -0.000001 0.017840
v 0.000975 -0.000977 0.017802
v 0.000957 -0.001952 0.017840
v 0.000901 -0.002890 0.017952
v 0.000811 -0.003754 0.018133
v 0.000690 -0.004512 0.018377
v 0.000542 -0.005134 0.018674
v 0.000373 -0.005596 0.019013
v 0.000190 -0.005881 0.019381
v 0.000373 0.003927 0.019403
v 0.000732 0.003643 0.019057
v 0.001063 0.003181 0.018737
v 0.001353 0.002559 0.018457
v 0.001591 0.001801 0.018227
v 0.001768 0.000937 0.018057
v 0.001877 -0.000001 0.017952
v 0.001913 -0.000977 0.017916
v 0.001877 -0.001952 0.017952
v 0.001768 -0.002890 0.018057
v 0.001591 -0.003754 0.018227
v 0.001353 -0.004512 0.018457
v 0.001063 -0.005134 0.018737
v 0.000732 -0.005596 0.019057
v 0.000373 -0.005881 0.019403
v 0.000542 0.003927 0.019439
v 0.001063 0.003643 0.019127
v 0.001543 0.003181 0.018840
v 0.001964 0.002559 0.018588
v 0.002310 0.001801 0.018381
v 0.002566 0.000937 0.018227
v 0.002724 -0.000001 0.018133
v 0.002778 -0.000977 0.018101
v 0.002724 -0.001952 0.018133
v 0.002566 -0.002890 0.018227
v 0.002310 -0.003754 0.018381
v 0.001964 -0.004512 0.018588
v 0.001543 -0.005134 0.018840
v 0.001063 -0.005596 0.019127
v 0.000542 -0.005881 0.019439
v 0.000690 0.003927 0.019488
v 0.001353 0.003643 0.019223
v 0.001964 0.003181 0.018978
v 0.002500 0.002559 0.018764
v 0.002940 0.001801 0.018588
v 0.003266 0.000937 0.018457
v 0.003468 -0.000001 0.018377
v 0.003536 -0.000977 0.018350
v 0.003468 -0.001952 0.018377
v 0.003266 -0.002890 0.018457
v 0.002940 -0.003754 0.018588
v 0.002500 -0.004512 0.018764
v 0.001964 -0.005134 0.018978
v 0.001353 -0.005596 0.019223
v 0.000690 -0.005881 0.019488
v 0.000811 0.003927 0.019547
v 0.001591 0.003643 0.019339
v 0.002310 0.003181 0.019146
v 0.002940 0.002559 0.018978
v 0.003457 0.001801 0.018840
v 0.003841 0.000937 0.018737
v 0.004077 -0.000001 0.018674
v 0.004157 -0.000977 0.018653
v 0.004077 -0.001952 0.018674
v 0.003841 -0.002890 0.018737
v 0.003457 -0.003754 0.018840
v 0.002940 -0.004512 0.018978
v 0.002310 -0.005134 0.019146
v 0.001591 -0.005596 0.019339
v 0.000811 -0.005881 0.019547
v 0.000901 0.003927 0.019614
v 0.001768 0.003643 0.019471
v 0.002566 0.003181 0.019339
v 0.003266 0.002559 0.019223
v 0.003841 0.001801 0.019127
v 0.004268 0.000937 0.019057
v 0.004531 -0.000001 0.019013
v 0.004619 -0.000977 0.018998
v 0.004531 -0.001952 0.019013
v 0.004268 -0.002890 0.019057
v 0.003841 -0.003754 0.019127
v 0.003266 -0.004512 0.019223
v 0.002566 -0.005134 0.019339
v 0.001768 -0.005596 0.019471
v 0.000901 -0.005881 0.019614
v 0.000957 0.003927 0.019688
v 0.001877 0.003643 0.019614
v 0.002724 0.003181 0.019547
v 0.003468 0.002559 0.019488
v 0.004077 0.001801 0.019439
v 0.004531 0.000937 0.019403
v 0.004810 -0.000001 0.019381
v 0.004904 -0.000977 0.019374
v 0.004810 -0.001952 0.019381
v 0.004531 -0.002890 0.019403
v 0.004077 -0.003754 0.019439
v 0.003468 -0.004512 0.019488
v 0.002724 -0.005134 0.019547
v 0.001877 -0.005596 0.019614
v 0.000957 -0.005881 0.019688
v 0.000975 0.003927 0.019764
v 0.001913 0.003643 0.019764
v 0.002778 0.003181 0.019764
v 0.003536 0.002559 0.019764
v 0.004157 0.001801 0.019764
v 0.004619 0.000937 0.019764
v 0.004904 -0.000001 0.019764
v 0.005000 -0.000977 0.019764
v 0.004904 -0.001952 0.019764
v 0.004619 -0.002890 0.019764
v 0.004157 -0.003754 0.019764
v 0.003536 -0.004512 0.019764
v 0.002778 -0.005134 0.019764
v 0.001913 -0.005596 0.019764
v 0.000975 -0.005881 0.019764
v 0.000957 0.003927 0.019840
v 0.001877 0.003643 0.019913
v 0.002724 0.003181 0.019981
v 0.003468 0.002559 0.020040
v 0.004077 0.001801 0.020088
v 0.004531 0.000937 0.020124
v 0.004810 -0.000001 0.020146
v 0.004904 -0.000977 0.020154
v 0.004810 -0.001952 0.020146
v 0.004531 -0.002890 0.020124
v 0.004077 -0.003754 0.020088
v 0.003468 -0.004512 0.020040
v 0.002724 -0.005134 0.019981
v 0.001877 -0.005596 0.019913
v 0.000957 -0.005881 0.019840
v 0.000901 0.003927 0.019913
v 0.001768 0.003643 0.020057
v 0.002566 0.003181 0.020189
v 0.003266 0.002559 0.020305
v 0.003841 0.001801 0.020400
v 0.004268 0.000937 0.020471
v 0.004531 -0.000001 0.020514
v 0.004619 -0.000977 0.020529
v 0.004531 -0.001952 0.020514
v 0.004268 -0.002890 0.020471
v 0.003841 -0.003754 0.020400
v 0.003266 -0.004512 0.020305
v 0.002566 -0.005134 0.020189
v 0.001768 -0.005596 0.020057
v 0.000901 -0.005881 0.019913
v 0.000811 0.003927 0.019981
v 0.001591 0.003643 0.020189
v 0.002310 0.003181 0.020381
v 0.002940 0.002559 0.020549
v 0.003457 0.001801 0.020688
v 0.003841 0.000937 0.020790
v 0.004077 -0.000001 0.020854
v 0.004157 -0.000977 0.020875
v 0.004077 -0.001952 0.020854
v 0.003841 -0.002890 0.020790
v 0.003457 -0.003754 0.020688
v 0.002940 -0.004512 0.020549
v 0.002310 -0.005134 0.020381
v 0.001591 -0.005596 0.020189
v 0.000811 -0.005881 0.019981
v 0.000690 0.003927 0.020040
v 0.001353 0.003643 0.020305
v 0.001964 0.003181 0.020549
v 0.002500 0.002559 0.020764
v 0.002940 0.001801 0.020940
v 0.003266 0.000937 0.021070
v 0.003468 -0.000001 0.021151
v 0.003536 -0.000977 0.021178
v 0.003468 -0.001952 0.021151
v 0.003266 -0.002890 0.021070
v 0.002940 -0.003754 0.020940
v 0.002500 -0.004512 0.020764
v 0.001964 -0.005134 0.020549
v 0.001353 -0.005596 0.020305
v 0.000690 -0.005881 0.020040
v 0.000542 0.003927 0.020088
v 0.001063 0.003643 0.020400
v 0.001543 0.003181 0.020688
v 0.001964 0.002559 0.020940
v 0.002310 0.001801 0.021146
v 0.002566 0.000937 0.021300
v 0.002724 -0.000001 0.021395
v 0.002778 -0.000977 0.021427
v 0.002724 -0.001952 0.021395
v 0.002566 -0.002890 0.021300
v 0.002310 -0.003754 0.021146
v 0.001964 -0.004512 0.020940
v 0.001543 -0.005134 0.020688
v 0.001063 -0.005596 0.020400
v 0.000542 -0.005881 0.020088
v 0.000373 0.003927 0.020124
v 0.000732 0.003643 0.020471
v 0.001063 0.003181 0.020790
v 0.001353 0.002559 0.021070
v 0.001591 0.001801 0.021300
v 0.001768 0.000937 0.021471
v 0.001877 -0.000001 0.021576
v 0.001913 -0.000977 0.021612
v 0.001877 -0.001952 0.021576
v 0.001768 -0.002890 0.021471
v 0.001591 -0.003754 0.021300
v 0.001353 -0.004512 0.021070
v 0.001063 -0.005134 0.020790
v 0.000732 -0.005596 0.020471
v 0.000373 -0.005881 0.020124
v 0.000190 0.003927 0.020146
v 0.000373 0.003643 0.020514
v 0.000542 0.003181 0.020854
v 0.000690 0.002559 0.021151
v 0.000811 0.001801 0.021395
v 0.000901 0.000937 0.021576
v 0.000957 -0.000001 0.021688
v 0.000975 -0.000977 0.021725
v 0.000957 -0.001952 0.021688
v 0.000901 -0.002890 0.021576
v 0.000811 -0.003754 0.021395
v 0.000690 -0.004512 0.021151
v 0.000542 -0.005134 0.020854
v 0.000373 -0.005596 0.020514
v 0.000190 -0.005881 0.020146
v -0.000000 0.003927 0.020154
v -0.000000 0.003643 0.020529
v -0.000000 0.003181 0.020875
v -0.000000 0.002559 0.021178
v 0.000000 0.001801 0.021427
v 0.000000 0.000937 0.021612
v 0.000000 -0.000001 0.021725
v -0.000000 -0.000977 0.021764
v -0.000000 -0.001952 0.021725
v 0.000000 -0.002890 0.021612
v 0.000000 -0.003754 0.021427
v -0.000000 -0.004512 0.021178
v -0.000000 -0.005134 0.020875
v -0.000000 -0.005596 0.020529
v -0.000000 -0.005881 0.020154
v -0.000190 0.003927 0.020146
v -0.000373 0.003643 0.020514
v -0.000542 0.003181 0.020854
v -0.000690 0.002559 0.021151
v -0.000811 0.001801 0.021395
v -0.000901 0.000937 0.021576
v -0.000957 -0.000001 0.021688
v -0.000975 -0.000977 0.021725
v -0.000957 -0.001952 0.021688
v -0.000901 -0.002890 0.021576
v -0.000811 -0.003754 0.021395
v -0.000690 -0.004512 0.021151
v -0.000542 -0.005134 0.020854
v -0.000373 -0.005596 0.020514
v -0.000190 -0.005881 0.020146
v -0.000373 0.003927 0.020124
v -0.000732 0.003643 0.020471
v -0.001063 0.003181 0.020790
v -0.001353 0.002559 0.021070
v -0.001591 0.001801 0.021300
v -0.001768 0.000937 0.021471
v -0.001877 -0.000001 0.021576
v -0.001913 -0.000977 0.021612
v -0.001877 -0.001952 0.021576
v -0.001768 -0.002890 0.021471
v -0.001591 -0.003754 0.021300
v -0.001353 -0.004512 0.021070
v -0.001063 -0.005134 0.020790
v -0.000732 -0.005596 0.020471
v -0.000373 -0.005881 0.020124
v -0.000542 0.003927 0.020088
v -0.001063 0.003643 0.020400
v -0.001543 0.003181 0.020688
v -0.001964 0.002559 0.020940
v -0.002310 0.001801 0.021146
v -0.002566 0.000937 0.021300
v -0.002724 -0.000001 0.021395
v -0.002778 -0.000977 0.021427
v -0.002724 -0.001952 0.021395
v -0.002566 -0.002890 0.021300
v -0.002310 -0.003754 0.021146
v -0.001964 -0.004512 0.020940
v -0.001543 -0.005134 0.020688
v -0.001063 -0.005596 0.020400
v -0.000542 -0.005881 0.020088
v -0.000000 0.004023 0.019764
v -0.000690 0.003927 0.020040
v -0.001353 0.003643 0.020305
v -0.001964 0.003181 0.020549
v -0.002500 0.002559 0.020764
v -0.002940 0.001801 0.020940
v -0.003266 0.000937 0.021070
v -0.003468 -0.000001 0.021151
v -0.003536 -0.000977 0.021178
v -0.003468 -0.001952 0.021151
v -0.003266 -0.002890 0.021070
v -0.002940 -0.003754 0.020940
v -0.002500 -0.004512 0.020764
v -0.001964 -0.005134 0.020549
v -0.001353 -0.005596 0.020305
v -0.000690 -0.005881 0.020040
v -0.000811 0.003927 0.019981
v -0.001591 0.003643 0.020189
v -0.002310 0.003181 0.020381
v -0.002940 0.002559 0.020549
v -0.003457 0.001801 0.020688
v -0.003841 0.000937 0.020790
v -0.004077 -0.000001 0.020854
v -0.004157 -0.000977 0.020875
v -0.004077 -0.001952 0.020854
v -0.003841 -0.002890 0.020790
v -0.003457 -0.003754 0.020688
v -0.002940 -0.004512 0.020549
v -0.002310 -0.005134 0.020381
v -0.001591 -0.005596 0.020189
v -0.000811 -0.005881 0.019981
v 0.000000 -0.005977 0.019764
v -0.000901 0.003927 0.019913
v -0.001768 0.003643 0.020057
v -0.002566 0.003181 0.020189
v -0.003266 0.002559 0.020305
v -0.003841 0.001801 0.020400
v -0.004268 0.000937 0.020471
v -0.004531 -0.000001 0.020514
v -0.004619 -0.000977 0.020529
v -0.004531 -0.001952 0.020514
v -0.004268 -0.002890 0.020471
v -0.003841 -0.003754 0.020400
v -0.003266 -0.004512 0.020305
v -0.002566 -0.005134 0.020189
v -0.001768 -0.005596 0.020057
v -0.000901 -0.005881 0.019913
v -0.000957 0.003927 0.019840
v -0.001877 0.003643 0.019913
v -0.002724 0.003181 0.019981
v -0.003468 0.002559 0.020040
v -0.004077 0.001801 0.020088
v -0.004531 0.000937 0.020124
v -0.004810 -0.000001 0.020146
v -0.004904 -0.000977 0.020154
v -0.004810 -0.001952 0.020146
v -0.004531 -0.002890 0.020124
v -0.004077 -0.003754 0.020088
v -0.003468 -0.004512 0.020040
v -0.002724 -0.005134 0.019981
v -0.001877 -0.005596 0.019913
v -0.000957 -0.005881 0.019840
v -0.000975 0.003927 0.019764
v -0.001913 0.003643 0.019764
v -0.002778 0.003181 0.019764
v -0.003536 0.002559 0.019764
v -0.004157 0.001801 0.019764
v -0.004619 0.000937 0.019764
v -0.004904 -0.000001 0.019764
v -0.005000 -0.000977 0.019764
v -0.004904 -0.001952 0.019764
v -0.004619 -0.002890 0.019764
v -0.004157 -0.003754 0.019764
v -0.003536 -0.004512 0.019764
v -0.002778 -0.005134 0.019764
v -0.001913 -0.005596 0.019764
v -0.000975 -0.005881 0.019764
v -0.000957 0.003927 0.019688
v -0.001877 0.003643 0.019614
v -0.002724 0.003181 0.019547
v -0.003468 0.002559 0.019488
v -0.004077 0.001801 0.019439
v -0.004531 0.000937 0.019403
v -0.004810 -0.000001 0.019381
v -0.004904 -0.000977 0.019374
v -0.004810 -0.001952 0.019381
v -0.004531 -0.002890 0.019403
v -0.004077 -0.003754 0.019439
v -0.003468 -0.004512 0.019488
v -0.002724 -0.005134 0.019547
v -0.001877 -0.005596 0.019614
v -0.000957 -0.005881 0.019688
v -0.000901 0.003927 0.019614
v -0.001768 0.003643 0.019471
v -0.002566 0.003181 0.019339
v -0.003266 0.002559 0.019223
v -0.003841 0.001801 0.019127
v -0.004268 0.000937 0.019057
v -0.004531 -0.000001 0.019013
v -0.004619 -0.000977 0.018998
v -0.004531 -0.001952 0.019013
v -0.004268 -0.002890 0.019057
v -0.003841 -0.003754 0.019127
v -0.003266 -0.004512 0.019223
v -0.002566 -0.005134 0.019339
v -0.001768 -0.005596 0.019471
v -0.000901 -0.005881 0.019614
v -0.000811 0.003927 0.019547
v -0.001591 0.003643 0.019339
v -0.002310 0.003181 0.019146
v -0.002940 0.002559 0.018978
v -0.003457 0.001801 0.018840
v -0.003841 0.000937 0.018737
v -0.004077 -0.000001 0.018674
v -0.004157 -0.000977 0.018653
v -0.004077 -0.001952 0.018674
v -0.003841 -0.002890 0.018737
v -0.003457 -0.003754 0.018840
v -0.002940 -0.004512 0.018978
v -0.002310 -0.005134 0.019146
v -0.001591 -0.005596 0.019339
v -0.000811 -0.005881 0.019547
v -0.000690 0.003927 0.019488
v -0.001353 0.003643 0.019223
v -0.001964 0.003181 0.018978
v -0.002500 0.002559 0.018764
v -0.002940 0.001801 0.018588
v -0.003266 0.000937 0.018457
v -0.003468 -0.000001 0.018377
v -0.003536 -0.000977 0.018350
v -0.003468 -0.001952 0.018377
v -0.003266 -0.002890 0.018457
v -0.002940 -0.003754 0.018588
v -0.002500 -0.004512 0.018764
v -0.001964 -0.005134 0.018978
v -0.001353 -0.005596 0.019223
v -0.000690 -0.005881 0.019488
v -0.000542 0.003927 0.019439
v -0.001063 0.003643 0.019127
v -0.001543 0.003181 0.018840
v -0.001964 0.002559 0.018588
v -0.002310 0.001801 0.018381
v -0.002566 0.000937 0.018227
v -0.002724 -0.000001 0.018133
v -0.002778 -0.000977 0.018101
v -0.002724 -0.001952 0.018133
v -0.002566 -0.002890 0.018227
v -0.002310 -0.003754 0.018381
v -0.001964 -0.004512 0.018588
v -0.001543 -0.005134 0.018840
v -0.001063 -0.005596 0.019127
v -0.000542 -0.005881 0.019439
v -0.000373 0.003927 0.019403
v -0.000732 0.003643 0.019057
v -0.001063 0.003181 0.018737
v -0.001353 0.002559 0.018457
v -0.001591 0.001801 0.018227
v -0.001768 0.000937 0.018057
v -0.001877 -0.000001 0.017952
v -0.001913 -0.000977 0.017916
v -0.001877 -0.001952 0.017952
v -0.001768 -0.002890 0.018057
v -0.001591 -0.003754 0.018227
v -0.001353 -0.004512 0.018457
v -0.001063 -0.005134 0.018737
v -0.000732 -0.005596 0.019057
v -0.000373 -0.005881 0.019403
v -0.000190 0.003927 0.019381
v -0.000373 0.003643 0.019013
v -0.000542 0.003181 0.018674
v -0.000690 0.002559 0.018377
v -0.000811 0.001801 0.018133
v -0.000901 0.000937 0.017952
v -0.000957 -0.000001 0.017840
v -0.000975 -0.000977 0.017802
v -0.000957 -0.001952 0.017840
v -0.000901 -0.002890 0.017952
v -0.000811 -0.003754 0.018133
v -0.000690 -0.004512 0.018377
v -0.000542 -0.005134 0.018674
v -0.000373 -0.005596 0.019013
v -0.000190 -0.005881 0.019381
v 0.000000 -0.003754 0.018101
v 0.000000 -0.005596 0.018998
v 0.000000 -0.005881 0.019374
vn -0.0000 0.0559 0.9984
vn -0.1960 0.9806 -0.0000
vn 0.8313 0.0311 0.5550
vn 0.9808 0.0109 0.1949
vn -0.8327 0.5537 0.0001
vn -0.1949 0.0548 0.9793
vn -0.5553 0.0465 0.8304
vn 0.1949 0.0548 0.9793
vn 0.5553 0.0465 0.8304
vn -0.0000 0.8413 0.5406
vn -0.0000 0.9813 0.1926
vn -0.0000 -0.9805 0.1968
vn -0.0000 -0.8221 0.5693
vn -0.0000 -0.5231 0.8523
vn -0.0000 -0.1420 0.9899
vn -0.9808 0.0109 0.1949
vn -0.8313 0.0311 0.5550
vn -0.0000 0.5873 0.8093
vn -0.0000 0.2474 0.9689
vn -0.0000 -0.2500 -0.9682
vn -0.0000 0.1046 0.9945
vn 1.0000 -0.0000 -0.0000
vn -1.0000 -0.0000 -0.0000
vn -0.1864 0.9468 0.2624
vn -0.5562 0.8206 -0.1314
vn -0.8291 0.5438 -0.1296
vn -0.9423 0.2014 0.2674
vn -0.1886 0.9560 0.2249
vn -0.5311 0.8055 0.2629
vn -0.7964 0.5442 0.2638
vn -0.9529 0.2013 0.2270
vn -0.0000 1.0000 -0.0000
vn 0.1960 0.9806 -0.0000
vn -0.5575 0.8302 0.0001
vn -0.0000 -1.0000 -0.0000
vn 0.9423 0.2014 0.2674
vn 0.8291 0.5438 -0.1296
vn 0.5562 0.8206 -0.1314
vn 0.1864 0.9468 0.2624
vn 0.1886 0.9560 0.2249
vn 0.5311 0.8055 0.2629
vn 0.7964 0.5442 0.2638
vn 0.9529 0.2013 0.2270
vn 0.5575 0.8302 0.0001
vn 0.8327 0.5537 0.0001
vn -0.0000 -0.8480 0.5299
vn 0.9810 0.1942 -0.0000
vn -0.0488 0.4284 -0.9023
vn -0.1273 0.7653 -0.6310
vn -0.1809 0.9537 -0.2404
vn -0.1390 0.3929 -0.9090
vn -0.3656 0.6752 -0.6406
vn -0.5176 0.8203 -0.2431
vn -0.2090 0.3274 -0.9215
vn -0.5575 0.5052 -0.6587
vn -0.7827 0.5709 -0.2478
vn -0.2493 0.2413 -0.9379
vn -0.6774 0.2738 -0.6828
vn -0.9378 0.2374 -0.2532
vn 0.2493 0.2413 -0.9379
vn 0.6774 0.2738 -0.6828
vn 0.9378 0.2374 -0.2532
vn 0.2090 0.3274 -0.9215
vn 0.5575 0.5052 -0.6587
vn 0.7827 0.5709 -0.2478
vn 0.1390 0.3929 -0.9090
vn 0.3656 0.6752 -0.6406
vn 0.5176 0.8203 -0.2431
vn 0.0488 0.4284 -0.9023
vn 0.1273 0.7653 -0.6310
vn 0.1809 0.9537 -0.2404
vn -0.0000 0.4329 -0.9014
vn -0.0000 0.7768 -0.6298
vn -0.0000 0.9708 -0.2401
vn -0.9810 0.1942 -0.0000
vn -0.3799 -0.2031 -0.9025
vn -0.8834 -0.2998 -0.3601
vn 0.7055 0.1421 -0.6943
vn -0.3773 -0.2315 -0.8967
vn -0.9216 -0.0970 -0.3758
vn 0.9704 -0.0711 -0.2308
vn 0.7219 -0.2097 -0.6594
vn -0.0000 -0.6365 -0.7713
vn -0.0000 -0.9891 0.1470
vn -0.0000 0.2005 -0.9797
vn 0.0385 -0.2089 -0.9772
vn 0.0354 0.4379 -0.8983
vn 0.0374 -0.3117 -0.9495
vn 0.0374 0.3117 -0.9495
vn 0.0354 -0.4379 -0.8983
vn 0.0385 0.2089 -0.9772
vn 0.0315 -0.5989 -0.8002
vn 0.0391 0.1204 -0.9920
vn 0.0238 -0.7966 -0.6041
vn 0.0393 0.0393 -0.9985
vn 0.0094 0.9710 -0.2391
vn 0.0094 -0.9710 -0.2391
vn 0.0393 -0.0393 -0.9985
vn 0.0238 0.7966 -0.6041
vn 0.0391 -0.1204 -0.9920
vn 0.0315 0.5989 -0.8002
vn 0.1195 -0.1243 -0.9850
vn 0.0953 0.6114 -0.7856
vn 0.1176 -0.2155 -0.9694
vn 0.1076 0.4495 -0.8868
vn 0.1141 -0.3210 -0.9402
vn 0.1141 0.3210 -0.9402
vn 0.1076 -0.4495 -0.8868
vn 0.1176 0.2155 -0.9694
vn 0.0953 -0.6114 -0.7856
vn 0.1195 0.1243 -0.9850
vn 0.0713 -0.8059 -0.5877
vn 0.1204 0.0406 -0.9919
vn 0.0279 0.9727 -0.2303
vn 0.0279 -0.9727 -0.2303
vn 0.1204 -0.0406 -0.9919
vn 0.0713 0.8059 -0.5877
vn 0.1612 -0.6367 -0.7540
vn 0.2072 0.1327 -0.9692
vn 0.1184 -0.8241 -0.5539
vn 0.2089 0.0434 -0.9770
vn 0.0455 0.9760 -0.2130
vn 0.0455 -0.9760 -0.2130
vn 0.2089 -0.0434 -0.9770
vn 0.1184 0.8241 -0.5539
vn 0.2072 -0.1327 -0.9692
vn 0.1612 0.6367 -0.7540
vn 0.2035 -0.2296 -0.9518
vn 0.1841 0.4737 -0.8612
vn 0.1966 -0.3406 -0.9194
vn 0.1966 0.3406 -0.9194
vn 0.1841 -0.4737 -0.8612
vn 0.2035 0.2296 -0.9518
vn 0.2301 0.6752 -0.7008
vn 0.3017 -0.2530 -0.9192
vn 0.2679 0.5121 -0.8161
vn 0.2894 -0.3726 -0.8817
vn 0.2894 0.3726 -0.8817
vn 0.2679 -0.5121 -0.8161
vn 0.3017 0.2530 -0.9192
vn 0.2301 -0.6752 -0.7008
vn 0.3085 0.1468 -0.9398
vn 0.1643 -0.8499 -0.5006
vn 0.3115 0.0481 -0.9490
vn 0.0615 0.9803 -0.1875
vn 0.0615 -0.9803 -0.1875
vn 0.3115 -0.0481 -0.9490
vn 0.1643 0.8499 -0.5006
vn 0.3085 -0.1468 -0.9398
vn 0.4319 0.1687 -0.8860
vn 0.2075 -0.8807 -0.4258
vn 0.4375 0.0555 -0.8975
vn 0.0754 0.9851 -0.1546
vn 0.0754 -0.9851 -0.1546
vn 0.4375 -0.0555 -0.8975
vn 0.2075 0.8807 -0.4258
vn 0.4319 -0.1687 -0.8860
vn 0.3014 0.7259 -0.6183
vn 0.4195 -0.2887 -0.8606
vn 0.3611 0.5664 -0.7408
vn 0.3976 -0.4201 -0.8157
vn 0.3976 0.4201 -0.8157
vn 0.3611 -0.5664 -0.7408
vn 0.4195 0.2887 -0.8606
vn 0.3014 -0.7259 -0.6183
vn 0.5635 -0.3399 -0.7530
vn 0.4624 0.6358 -0.6179
vn 0.5239 -0.4852 -0.7001
vn 0.5239 0.4852 -0.7001
vn 0.4624 -0.6358 -0.6179
vn 0.5635 0.3399 -0.7530
vn 0.3716 -0.7845 -0.4965
vn 0.5869 0.2009 -0.7843
vn 0.2453 -0.9124 -0.3277
vn 0.5978 0.0664 -0.7989
vn 0.0864 0.9896 -0.1154
vn 0.0864 -0.9896 -0.1154
vn 0.5978 -0.0664 -0.7989
vn 0.2453 0.9124 -0.3277
vn 0.5869 -0.2009 -0.7843
vn 0.3716 0.7845 -0.4965
vn 0.2739 -0.9391 -0.2077
vn 0.7941 0.0813 -0.6023
vn 0.0940 0.9930 -0.0713
vn 0.0940 -0.9930 -0.0713
vn 0.7941 -0.0813 -0.6023
vn 0.2739 0.9391 -0.2077
vn 0.7727 -0.2438 -0.5860
vn 0.4319 0.8403 -0.3275
vn 0.7285 -0.4050 -0.5525
vn 0.5607 0.7105 -0.4252
vn 0.6589 -0.5623 -0.4997
vn 0.6589 0.5623 -0.4997
vn 0.5607 -0.7105 -0.4252
vn 0.7285 0.4050 -0.5525
vn 0.4319 -0.8403 -0.3275
vn 0.7727 0.2438 -0.5860
vn 0.6268 0.7637 -0.1543
vn 0.7594 -0.6232 -0.1870
vn 0.7594 0.6232 -0.1870
vn 0.6268 -0.7637 -0.1543
vn 0.8618 0.4607 -0.2122
vn 0.4683 -0.8760 -0.1153
vn 0.9314 0.2825 -0.2293
vn 0.2895 -0.9545 -0.0713
vn 0.9666 0.0952 -0.2380
vn 0.0980 0.9949 -0.0241
vn 0.0980 -0.9949 -0.0241
vn 0.9666 -0.0952 -0.2380
vn 0.2895 0.9545 -0.0713
vn 0.9314 -0.2825 -0.2293
vn 0.4683 0.8760 -0.1153
vn 0.8618 -0.4607 -0.2122
vn 0.9666 0.0952 0.2380
vn 0.0980 0.9949 0.0241
vn 0.0980 -0.9949 0.0241
vn 0.9666 -0.0952 0.2380
vn 0.2895 0.9545 0.0713
vn 0.9314 -0.2825 0.2293
vn 0.4682 0.8760 0.1153
vn 0.8618 -0.4607 0.2122
vn 0.6268 0.7637 0.1543
vn 0.7594 -0.6232 0.1870
vn 0.7594 0.6232 0.1870
vn 0.6268 -0.7637 0.1543
vn 0.8618 0.4607 0.2122
vn 0.4683 -0.8760 0.1153
vn 0.9314 0.2825 0.2293
vn 0.2895 -0.9545 0.0713
vn 0.6589 -0.5623 0.4997
vn 0.6589 0.5623 0.4997
vn 0.5607 -0.7105 0.4252
vn 0.7285 0.4050 0.5525
vn 0.4319 -0.8403 0.3275
vn 0.7727 0.2438 0.5860
vn 0.2739 -0.9391 0.2077
vn 0.7941 0.0813 0.6023
vn 0.0940 0.9930 0.0713
vn 0.0940 -0.9930 0.0713
vn 0.7941 -0.0813 0.6023
vn 0.2739 0.9391 0.2077
vn 0.7727 -0.2438 0.5860
vn 0.4319 0.8403 0.3276
vn 0.7285 -0.4050 0.5525
vn 0.5607 0.7105 0.4252
vn 0.0864 -0.9896 0.1154
vn 0.5978 -0.0664 0.7989
vn 0.2453 0.9124 0.3277
vn 0.5869 -0.2009 0.7843
vn 0.3716 0.7845 0.4965
vn 0.5635 -0.3399 0.7530
vn 0.4624 0.6358 0.6179
vn 0.5239 -0.4852 0.7001
vn 0.5239 0.4852 0.7001
vn 0.4624 -0.6358 0.6179
vn 0.5635 0.3399 0.7530
vn 0.3716 -0.7845 0.4965
vn 0.5869 0.2009 0.7843
vn 0.2453 -0.9124 0.3277
vn 0.5978 0.0664 0.7989
vn 0.0864 0.9896 0.1154
vn 0.3611 -0.5664 0.7408
vn 0.4195 0.2887 0.8606
vn 0.3014 -0.7259 0.6183
vn 0.4319 0.1687 0.8860
vn 0.2075 -0.8807 0.4258
vn 0.4375 0.0555 0.8975
vn 0.0754 0.9851 0.1546
vn 0.0754 -0.9851 0.1546
vn 0.4375 -0.0555 0.8975
vn 0.2075 0.8807 0.4258
vn 0.4319 -0.1687 0.8860
vn 0.3014 0.7259 0.6183
vn 0.4195 -0.2887 0.8606
vn 0.3611 0.5664 0.7408
vn 0.3976 -0.4201 0.8157
vn 0.3976 0.4201 0.8157
vn 0.1643 0.8499 0.5006
vn 0.3085 -0.1468 0.9398
vn 0.2301 0.6752 0.7008
vn 0.3017 -0.2530 0.9192
vn 0.2679 0.5121 0.8161
vn 0.2894 -0.3726 0.8817
vn 0.2894 0.3726 0.8817
vn 0.2679 -0.5121 0.8161
vn 0.3017 0.2530 0.9192
vn 0.2301 -0.6752 0.7008
vn 0.3085 0.1468 0.9398
vn 0.1643 -0.8499 0.5006
vn 0.3115 0.0481 0.9490
vn 0.0616 0.9803 0.1875
vn 0.0615 -0.9803 0.1875
vn 0.3115 -0.0481 0.9490
vn 0.2035 0.2296 0.9518
vn 0.1612 -0.6367 0.7540
vn 0.2072 0.1327 0.9692
vn 0.1184 -0.8241 0.5539
vn 0.2089 0.0434 0.9770
vn 0.0455 0.9760 0.2130
vn 0.0455 -0.9760 0.2130
vn 0.2089 -0.0434 0.9770
vn 0.1184 0.8241 0.5539
vn 0.2072 -0.1327 0.9692
vn 0.1612 0.6367 0.7540
vn 0.2035 -0.2296 0.9518
vn 0.1841 0.4737 0.8612
vn 0.1966 -0.3406 0.9194
vn 0.1966 0.3406 0.9194
vn 0.1841 -0.4737 0.8612
vn 0.1195 -0.1243 0.9850
vn 0.0953 0.6114 0.7856
vn 0.1176 -0.2155 0.9694
vn 0.1076 0.4495 0.8868
vn 0.1141 -0.3210 0.9402
vn 0.1141 0.3210 0.9402
vn 0.1076 -0.4495 0.8868
vn 0.1176 0.2155 0.9694
vn 0.0953 -0.6114 0.7856
vn 0.1195 0.1243 0.9850
vn 0.0713 -0.8059 0.5877
vn 0.1204 0.0406 0.9919
vn 0.0279 0.9727 0.2303
vn 0.0279 -0.9727 0.2303
vn 0.1204 -0.0406 0.9919
vn 0.0713 0.8059 0.5877
vn 0.0315 -0.5989 0.8002
vn 0.0391 0.1204 0.9920
vn 0.0238 -0.7966 0.6041
vn 0.0393 0.0393 0.9985
vn 0.0094 0.9710 0.2391
vn 0.0094 -0.9710 0.2391
vn 0.0393 -0.0393 0.9985
vn 0.0238 0.7966 0.6041
vn 0.0391 -0.1204 0.9920
vn 0.0315 0.5989 0.8002
vn 0.0385 -0.2089 0.9772
vn 0.0354 0.4379 0.8983
vn 0.0374 -0.3117 0.9495
vn 0.0374 0.3117 0.9495
vn 0.0354 -0.4379 0.8983
vn 0.0385 0.2089 0.9772
vn -0.0315 0.5989 0.8002
vn -0.0385 -0.2089 0.9772
vn -0.0354 0.4379 0.8983
vn -0.0374 -0.3117 0.9495
vn -0.0374 0.3117 0.9495
vn -0.0354 -0.4379 0.8983
vn -0.0385 0.2089 0.9772
vn -0.0315 -0.5989 0.8002
vn -0.0391 0.1204 0.9920
vn -0.0238 -0.7966 0.6041
vn -0.0393 0.0393 0.9985
vn -0.0094 0.9710 0.2391
vn -0.0094 -0.9710 0.2391
vn -0.0393 -0.0393 0.9985
vn -0.0238 0.7966 0.6041
vn -0.0391 -0.1204 0.9920
vn -0.1195 0.1243 0.9850
vn -0.0713 -0.8059 0.5877
vn -0.1204 0.0406 0.9919
vn -0.0279 0.9727 0.2303
vn -0.0279 -0.9727 0.2303
vn -0.1204 -0.0406 0.9919
vn -0.0713 0.8059 0.5877
vn -0.1195 -0.1243 0.9850
vn -0.0953 0.6114 0.7856
vn -0.1176 -0.2155 0.9694
vn -0.1076 0.4495 0.8868
vn -0.1141 -0.3210 0.9402
vn -0.1141 0.3210 0.9402
vn -0.1076 -0.4495 0.8868
vn -0.1176 0.2155 0.9694
vn -0.0953 -0.6114 0.7856
vn -0.2035 -0.2296 0.9518
vn -0.1841 0.4737 0.8612
vn -0.1966 -0.3406 0.9194
vn -0.1966 0.3406 0.9194
vn -0.1841 -0.4737 0.8612
vn -0.2035 0.2296 0.9518
vn -0.1612 -0.6367 0.7540
vn -0.2072 0.1327 0.9692
vn -0.1184 -0.8241 0.5539
vn -0.2089 0.0434 0.9770
vn -0.0455 0.9760 0.2130
vn -0.0455 -0.9760 0.2130
vn -0.2089 -0.0434 0.9770
vn -0.1184 0.8241 0.5539
vn -0.2072 -0.1327 0.9692
vn -0.1612 0.6367 0.7540
vn -0.1643 -0.8499 0.5006
vn -0.3115 0.0481 0.9490
vn -0.0616 0.9803 0.1875
vn -0.0615 -0.9803 0.1875
vn -0.3115 -0.0481 0.9490
vn -0.1643 0.8499 0.5006
vn -0.3085 -0.1468 0.9398
vn -0.2301 0.6752 0.7008
vn -0.3017 -0.2530 0.9192
vn -0.2679 0.5121 0.8161
vn -0.2894 -0.3726 0.8817
vn -0.2894 0.3726 0.8817
vn -0.2679 -0.5121 0.8161
vn -0.3017 0.2530 0.9192
vn -0.2301 -0.6752 0.7008
vn -0.3085 0.1468 0.9398
vn -0.3976 -0.4201 0.8157
vn -0.3976 0.4201 0.8158
vn -0.3611 -0.5664 0.7408
vn -0.4195 0.2887 0.8606
vn -0.3014 -0.7259 0.6183
vn -0.4319 0.1687 0.8860
vn -0.2075 -0.8807 0.4258
vn -0.4375 0.0555 0.8975
vn -0.0754 0.9851 0.1546
vn -0.0754 -0.9851 0.1546
vn -0.4375 -0.0555 0.8975
vn -0.2075 0.8807 0.4258
vn -0.4319 -0.1687 0.8860
vn -0.3014 0.7259 0.6183
vn -0.4195 -0.2887 0.8606
vn -0.3611 0.5664 0.7408
vn -0.0864 0.9896 0.1154
vn -0.0864 -0.9896 0.1154
vn -0.5978 -0.0664 0.7989
vn -0.2453 0.9124 0.3277
vn -0.5869 -0.2009 0.7843
vn -0.3716 0.7845 0.4965
vn -0.5635 -0.3399 0.7530
vn -0.4624 0.6358 0.6179
vn -0.5239 -0.4852 0.7001
vn -0.5239 0.4852 0.7001
vn -0.4624 -0.6358 0.6179
vn -0.5635 0.3399 0.7530
vn -0.3716 -0.7845 0.4965
vn -0.5869 0.2009 0.7843
vn -0.2453 -0.9124 0.3277
vn -0.5978 0.0664 0.7989
vn -0.6589 0.5623 0.4997
vn -0.5607 -0.7105 0.4252
vn -0.7285 0.4050 0.5525
vn -0.4319 -0.8403 0.3275
vn -0.7727 0.2438 0.5860
vn -0.2739 -0.9391 0.2077
vn -0.7941 0.0813 0.6023
vn -0.0940 0.9930 0.0713
vn -0.0940 -0.9930 0.0713
vn -0.7941 -0.0813 0.6023
vn -0.2739 0.9391 0.2077
vn -0.7728 -0.2438 0.5860
vn -0.4319 0.8403 0.3275
vn -0.7285 -0.4050 0.5525
vn -0.5607 0.7105 0.4252
vn -0.6589 -0.5623 0.4997
vn -0.9666 -0.0952 0.2380
vn -0.2895 0.9545 0.0713
vn -0.9314 -0.2825 0.2293
vn -0.4683 0.8760 0.1153
vn -0.8618 -0.4607 0.2122
vn -0.6268 0.7638 0.1543
vn -0.7594 -0.6232 0.1870
vn -0.7594 0.6232 0.1870
vn -0.6268 -0.7637 0.1543
vn -0.8618 0.4607 0.2122
vn -0.4683 -0.8760 0.1153
vn -0.9314 0.2825 0.2293
vn -0.2895 -0.9545 0.0713
vn -0.9666 0.0952 0.2380
vn -0.0980 0.9949 0.0241
vn -0.0980 -0.9949 0.0241
vn -0.6268 -0.7637 -0.1543
vn -0.8618 0.4607 -0.2122
vn -0.4683 -0.8760 -0.1153
vn -0.9314 0.2825 -0.2293
vn -0.2895 -0.9545 -0.0713
vn -0.9666 0.0952 -0.2380
vn -0.0980 0.9949 -0.0241
vn -0.0980 -0.9949 -0.0241
vn -0.9666 -0.0952 -0.2380
vn -0.2895 0.9545 -0.0713
vn -0.9314 -0.2825 -0.2293
vn -0.4683 0.8760 -0.1153
vn -0.8618 -0.4607 -0.2122
vn -0.6268 0.7637 -0.1543
vn -0.7594 -0.6232 -0.1870
vn -0.7594 0.6232 -0.1870
vn -0.2739 0.9391 -0.2077
vn -0.7727 -0.2438 -0.5860
vn -0.4319 0.8403 -0.3275
vn -0.7285 -0.4050 -0.5525
vn -0.5607 0.7105 -0.4252
vn -0.6589 -0.5623 -0.4997
vn -0.6589 0.5623 -0.4997
vn -0.5607 -0.7105 -0.4252
vn -0.7285 0.4050 -0.5525
vn -0.4319 -0.8403 -0.3275
vn -0.7727 0.2438 -0.5860
vn -0.2739 -0.9391 -0.2077
vn -0.7941 0.0813 -0.6023
vn -0.0940 0.9930 -0.0713
vn -0.0940 -0.9930 -0.0713
vn -0.7941 -0.0813 -0.6023
vn -0.5635 0.3399 -0.7530
vn -0.3716 -0.7845 -0.4965
vn -0.5869 0.2009 -0.7843
vn -0.2453 -0.9124 -0.3277
vn -0.5978 0.0664 -0.7989
vn -0.0864 0.9896 -0.1154
vn -0.0864 -0.9896 -0.1154
vn -0.5978 -0.0664 -0.7989
vn -0.2453 0.9124 -0.3277
vn -0.5869 -0.2009 -0.7843
vn -0.3716 0.7845 -0.4965
vn -0.5635 -0.3399 -0.7530
vn -0.4624 0.6358 -0.6179
vn -0.5239 -0.4852 -0.7001
vn -0.5239 0.4852 -0.7001
vn -0.4624 -0.6358 -0.6179
vn -0.4319 -0.1687 -0.8860
vn -0.3014 0.7259 -0.6183
vn -0.4195 -0.2887 -0.8606
vn -0.3611 0.5664 -0.7408
vn -0.3976 -0.4201 -0.8157
vn -0.3976 0.4201 -0.8157
vn -0.3611 -0.5664 -0.7408
vn -0.4195 0.2887 -0.8606
vn -0.3014 -0.7259 -0.6183
vn -0.4319 0.1687 -0.8860
vn -0.2075 -0.8807 -0.4258
vn -0.4375 0.0555 -0.8975
vn -0.0754 0.9851 -0.1546
vn -0.0754 -0.9851 -0.1546
vn -0.4375 -0.0555 -0.8975
vn -0.2075 0.8807 -0.4258
vn -0.2301 -0.6752 -0.7008
vn -0.3085 0.1468 -0.9398
vn -0.1643 -0.8499 -0.5006
vn -0.3115 0.0481 -0.9490
vn -0.0615 0.9803 -0.1875
vn -0.0616 -0.9803 -0.1875
vn -0.3115 -0.0481 -0.9490
vn -0.1643 0.8499 -0.5006
vn -0.3085 -0.1468 -0.9398
vn -0.2301 0.6752 -0.7008
vn -0.3017 -0.2530 -0.9192
vn -0.2679 0.5121 -0.8161
vn -0.2894 -0.3726 -0.8817
vn -0.2894 0.3726 -0.8817
vn -0.2679 -0.5121 -0.8161
vn -0.3017 0.2530 -0.9192
vn -0.2035 -0.2296 -0.9518
vn -0.1841 0.4737 -0.8612
vn -0.1966 -0.3406 -0.9194
vn -0.1966 0.3406 -0.9194
vn -0.1841 -0.4737 -0.8612
vn -0.2035 0.2296 -0.9518
vn -0.1612 -0.6367 -0.7540
vn -0.2072 0.1327 -0.9692
vn -0.1184 -0.8241 -0.5539
vn -0.2089 0.0434 -0.9770
vn -0.0455 0.9760 -0.2130
vn -0.0455 -0.9760 -0.2130
vn -0.2089 -0.0434 -0.9770
vn -0.1184 0.8241 -0.5539
vn -0.2072 -0.1327 -0.9692
vn -0.1612 0.6367 -0.7540
vn -0.0713 -0.8059 -0.5877
vn -0.1204 0.0406 -0.9919
vn -0.0279 0.9727 -0.2303
vn -0.0279 -0.9727 -0.2303
vn -0.1204 -0.0406 -0.9919
vn -0.0713 0.8059 -0.5877
vn -0.1195 -0.1243 -0.9850
vn -0.0953 0.6114 -0.7856
vn -0.1176 -0.2155 -0.9694
vn -0.1076 0.4495 -0.8868
vn -0.1141 -0.3210 -0.9402
vn -0.1141 0.3210 -0.9402
vn -0.1076 -0.4495 -0.8868
vn -0.1176 0.2155 -0.9694
vn -0.0953 -0.6114 -0.7856
vn -0.1195 0.1243 -0.9850
vn -0.0354 0.4379 -0.8983
vn -0.0374 -0.3117 -0.9495
vn -0.0374 0.3117 -0.9495
vn -0.0354 -0.4379 -0.8983
vn -0.0385 0.2089 -0.9772
vn -0.0315 -0.5989 -0.8002
vn -0.0391 0.1204 -0.9920
vn -0.0238 -0.7966 -0.6041
vn -0.0393 0.0393 -0.9985
vn -0.0094 0.9710 -0.2391
vn -0.0094 -0.9710 -0.2391
vn -0.0393 -0.0393 -0.9985
vn -0.0238 0.7966 -0.6041
vn -0.0391 -0.1204 -0.9920
vn -0.0315 0.5989 -0.8002
vn -0.0385 -0.2089 -0.9772
vt 0.434461 0.780000
vt 0.565539 0.780000
vt 0.565539 0.970000
vt 0.434461 0.970000
vt 0.849774 0.680878
vt 0.849781 0.523202
vt 0.859432 0.522307
vt 0.859427 0.681127
vt 0.608558 0.750000
vt 0.393390 0.750000
vt 0.379526 0.716885
vt 0.570113 0.709688
vt 0.608569 0.749961
vt 0.375000 0.696921
vt 0.574668 0.684108
vt 0.625000 0.069122
vt 0.625000 0.227320
vt 0.593944 0.227645
vt 0.593929 0.067128
vt 0.588547 0.981480
vt 0.411959 0.981480
vt 0.608558 1.000000
vt 0.393390 1.000000
vt 0.411959 0.768519
vt 0.588547 0.768520
vt 0.633781 0.749961
vt 0.652519 0.707624
vt 0.847481 0.707624
vt 0.866219 0.749961
vt 0.866213 0.750000
vt 0.633787 0.750000
vt 0.650226 0.680879
vt 0.652519 0.707624
vt 0.125000 0.696921
vt 0.372716 0.717008
vt 0.127284 0.717008
vt 0.366213 0.750000
vt 0.133787 0.750000
vt 0.375000 0.991213
vt 0.375000 0.758787
vt 0.379526 0.033115
vt 0.570113 0.040312
vt 0.574668 0.065892
vt 0.375000 0.053079
vt 0.393390 0.000000
vt 0.608558 0.000000
vt 0.608569 0.000039
vt 0.570113 0.040312
vt 0.625000 0.758787
vt 0.625000 0.991213
vt 0.000000 0.000000
vt 0.375000 0.500000
vt 0.375000 0.529538
vt 0.375000 0.508983
vt 0.384724 0.500000
vt 0.472539 0.500000
vt 0.523969 0.500887
vt 0.561351 0.510605
vt 0.574692 0.521846
vt 0.574668 0.684108
vt 0.375000 0.598461
vt 0.574668 0.065892
vt 0.574692 0.228154
vt 0.561351 0.239643
vt 0.523969 0.249113
vt 0.472539 0.250000
vt 0.384724 0.250000
vt 0.375000 0.241017
vt 0.375000 0.220462
vt 0.857138 0.711628
vt 0.865325 0.707624
vt 0.868427 0.735574
vt 0.866474 0.748303
vt 0.859427 0.681958
vt 0.857138 0.708704
vt 0.874393 0.687986
vt 0.872716 0.707624
vt 0.620474 0.042214
vt 0.623797 0.061971
vt 0.593970 0.066302
vt 0.589426 0.040218
vt 0.650219 0.523202
vt 0.650226 0.680878
vt 0.640572 0.681127
vt 0.634927 0.518044
vt 0.650219 0.523202
vt 0.875000 0.522680
vt 0.875000 0.680878
vt 0.125000 0.508983
vt 0.126464 0.502631
vt 0.130000 0.500000
vt 0.370000 0.500000
vt 0.125000 0.529538
vt 0.589573 0.712691
vt 0.605724 0.708343
vt 0.613132 0.733797
vt 0.609991 0.744925
vt 0.642862 0.708704
vt 0.640573 0.681958
vt 0.627284 0.707624
vt 0.625607 0.687986
vt 0.623797 0.688029
vt 0.620474 0.707786
vt 0.589426 0.709782
vt 0.593970 0.683698
vt 0.625000 0.680878
vt 0.620705 0.520527
vt 0.634927 0.518044
vt 0.593929 0.682872
vt 0.593944 0.521794
vt 0.593944 0.521794
vt 0.605561 0.276234
vt 0.602911 0.269556
vt 0.612568 0.267562
vt 0.615807 0.275726
vt 0.621355 0.266031
vt 0.625000 0.275218
vt 0.849904 0.510983
vt 0.859156 0.510118
vt 0.596418 0.264685
vt 0.603869 0.261036
vt 0.611188 0.258078
vt 0.621171 0.265567
vt 0.859818 0.510194
vt 0.874542 0.510820
vt 0.586522 0.261371
vt 0.590762 0.256645
vt 0.595755 0.252525
vt 0.610266 0.257386
vt 0.624252 0.239006
vt 0.594835 0.239150
vt 0.472539 0.250000
vt 0.593465 0.238951
vt 0.593944 0.227645
vt 0.589541 0.490830
vt 0.593029 0.495313
vt 0.594085 0.510331
vt 0.601828 0.488913
vt 0.611435 0.493548
vt 0.620272 0.508580
vt 0.608737 0.484481
vt 0.621247 0.488636
vt 0.634144 0.505659
vt 0.608845 0.476110
vt 0.618283 0.476085
vt 0.625000 0.474782
vt 0.633664 0.493271
vt 0.634938 0.505655
vt 0.650022 0.510927
vt 0.625000 0.275353
vt 0.625000 0.474647
vt 0.650353 0.510983
vt 0.849647 0.510983
vt 0.370715 0.494287
vt 0.012948 0.017264
vt 0.033734 0.044978
vt 0.375000 0.255000
vt 0.384724 0.500000
vt 0.375000 0.495000
vt 0.750000 0.312500
vt 0.750000 0.375000
vt 0.718750 0.375000
vt 0.718750 0.312500
vt 0.750000 0.750000
vt 0.750000 0.812500
vt 0.718750 0.812500
vt 0.718750 0.750000
vt 0.750000 0.250000
vt 0.718750 0.250000
vt 0.750000 0.687500
vt 0.718750 0.687500
vt 0.750000 0.187500
vt 0.718750 0.187500
vt 0.750000 0.625000
vt 0.718750 0.625000
vt 0.750000 0.125000
vt 0.718750 0.125000
vt 0.750000 0.562500
vt 0.718750 0.562500
vt 0.750000 0.062500
vt 0.718750 0.062500
vt 0.750000 0.500000
vt 0.718750 0.500000
vt 0.750000 0.937500
vt 0.734375 1.000000
vt 0.718750 0.937500
vt 0.734375 0.000000
vt 0.750000 0.437500
vt 0.718750 0.437500
vt 0.750000 0.875000
vt 0.718750 0.875000
vt 0.687500 0.437500
vt 0.687500 0.375000
vt 0.687500 0.875000
vt 0.687500 0.812500
vt 0.687500 0.312500
vt 0.687500 0.750000
vt 0.687500 0.250000
vt 0.687500 0.687500
vt 0.687500 0.187500
vt 0.687500 0.625000
vt 0.687500 0.125000
vt 0.687500 0.562500
vt 0.687500 0.062500
vt 0.687500 0.500000
vt 0.703125 1.000000
vt 0.687500 0.937500
vt 0.703125 0.000000
vt 0.656250 0.187500
vt 0.656250 0.125000
vt 0.656250 0.625000
vt 0.656250 0.562500
vt 0.656250 0.062500
vt 0.656250 0.500000
vt 0.671875 1.000000
vt 0.656250 0.937500
vt 0.671875 0.000000
vt 0.656250 0.437500
vt 0.656250 0.875000
vt 0.656250 0.375000
vt 0.656250 0.812500
vt 0.656250 0.312500
vt 0.656250 0.750000
vt 0.656250 0.250000
vt 0.656250 0.687500
vt 0.625000 0.875000
vt 0.625000 0.812500
vt 0.625000 0.375000
vt 0.625000 0.312500
vt 0.625000 0.750000
vt 0.625000 0.250000
vt 0.625000 0.687500
vt 0.625000 0.187500
vt 0.625000 0.625000
vt 0.625000 0.125000
vt 0.625000 0.562500
vt 0.625000 0.062500
vt 0.625000 0.500000
vt 0.640625 1.000000
vt 0.625000 0.937500
vt 0.640625 0.000000
vt 0.625000 0.437500
vt 0.593750 0.625000
vt 0.593750 0.562500
vt 0.593750 0.125000
vt 0.593750 0.062500
vt 0.593750 0.500000
vt 0.609375 1.000000
vt 0.593750 0.937500
vt 0.609375 0.000000
vt 0.593750 0.437500
vt 0.593750 0.875000
vt 0.593750 0.375000
vt 0.593750 0.812500
vt 0.593750 0.312500
vt 0.593750 0.750000
vt 0.593750 0.250000
vt 0.593750 0.687500
vt 0.593750 0.187500
vt 0.562500 0.375000
vt 0.562500 0.312500
vt 0.562500 0.812500
vt 0.562500 0.750000
vt 0.562500 0.250000
vt 0.562500 0.687500
vt 0.562500 0.187500
vt 0.562500 0.625000
vt 0.562500 0.125000
vt 0.562500 0.562500
vt 0.562500 0.062500
vt 0.562500 0.500000
vt 0.578125 1.000000
vt 0.562500 0.937500
vt 0.578125 0.000000
vt 0.562500 0.437500
vt 0.562500 0.875000
vt 0.531250 0.125000
vt 0.531250 0.062500
vt 0.531250 0.562500
vt 0.531250 0.500000
vt 0.546875 1.000000
vt 0.531250 0.937500
vt 0.546875 0.000000
vt 0.531250 0.437500
vt 0.531250 0.875000
vt 0.531250 0.375000
vt 0.531250 0.812500
vt 0.531250 0.312500
vt 0.531250 0.750000
vt 0.531250 0.250000
vt 0.531250 0.687500
vt 0.531250 0.187500
vt 0.531250 0.625000
vt 0.500000 0.812500
vt 0.500000 0.750000
vt 0.500000 0.312500
vt 0.500000 0.250000
vt 0.500000 0.687500
vt 0.500000 0.187500
vt 0.500000 0.625000
vt 0.500000 0.125000
vt 0.500000 0.562500
vt 0.500000 0.062500
vt 0.500000 0.500000
vt 0.515625 1.000000
vt 0.500000 0.937500
vt 0.515625 0.000000
vt 0.500000 0.437500
vt 0.500000 0.875000
vt 0.500000 0.375000
vt 0.468750 0.562500
vt 0.468750 0.500000
vt 0.484374 1.000000
vt 0.468750 0.937500
vt 0.484375 0.000000
vt 0.468750 0.062500
vt 0.468750 0.437500
vt 0.468750 0.875000
vt 0.468750 0.375000
vt 0.468750 0.812500
vt 0.468750 0.312500
vt 0.468750 0.750000
vt 0.468750 0.250000
vt 0.468750 0.687500
vt 0.468750 0.187500
vt 0.468750 0.625000
vt 0.468750 0.125000
vt 0.437500 0.312500
vt 0.437500 0.250000
vt 0.437500 0.750000
vt 0.437500 0.687500
vt 0.437500 0.187500
vt 0.437500 0.625000
vt 0.437500 0.125000
vt 0.437500 0.562500
vt 0.437500 0.062500
vt 0.437500 0.500000
vt 0.453124 1.000000
vt 0.437500 0.937500
vt 0.453125 0.000000
vt 0.437500 0.437500
vt 0.437500 0.875000
vt 0.437500 0.375000
vt 0.437500 0.812500
vt 0.421875 0.000000
vt 0.406250 0.062500
vt 0.406250 0.500000
vt 0.406250 0.437500
vt 0.406250 0.937500
vt 0.406250 0.875000
vt 0.406250 0.375000
vt 0.406250 0.812500
vt 0.406250 0.312500
vt 0.406250 0.750000
vt 0.406250 0.250000
vt 0.406250 0.687500
vt 0.406250 0.187500
vt 0.406250 0.625000
vt 0.406250 0.125000
vt 0.406250 0.562500
vt 0.421875 1.000000
vt 0.375000 0.250000
vt 0.375000 0.187500
vt 0.375000 0.687500
vt 0.375000 0.625000
vt 0.375000 0.125000
vt 0.375000 0.562500
vt 0.375000 0.062500
vt 0.375000 0.500000
vt 0.390625 1.000000
vt 0.375000 0.937500
vt 0.390625 0.000000
vt 0.375000 0.437500
vt 0.375000 0.875000
vt 0.375000 0.375000
vt 0.375000 0.812500
vt 0.375000 0.312500
vt 0.375000 0.750000
vt 0.343750 0.937500
vt 0.343750 0.875000
vt 0.343750 0.437500
vt 0.343750 0.375000
vt 0.343750 0.812500
vt 0.343750 0.312500
vt 0.343750 0.750000
vt 0.343750 0.250000
vt 0.343750 0.687500
vt 0.343750 0.187500
vt 0.343750 0.625000
vt 0.343750 0.125000
vt 0.343750 0.562500
vt 0.343750 0.062500
vt 0.343750 0.500000
vt 0.359375 1.000000
vt 0.359375 0.000000
vt 0.312500 0.687500
vt 0.312500 0.625000
vt 0.312500 0.187500
vt 0.312500 0.125000
vt 0.312500 0.562500
vt 0.312500 0.062500
vt 0.312500 0.500000
vt 0.328125 1.000000
vt 0.312500 0.937500
vt 0.328125 0.000000
vt 0.312500 0.437500
vt 0.312500 0.875000
vt 0.312500 0.375000
vt 0.312500 0.812500
vt 0.312500 0.312500
vt 0.312500 0.750000
vt 0.312500 0.250000
vt 0.281250 0.437500
vt 0.281250 0.375000
vt 0.281250 0.875000
vt 0.281250 0.812500
vt 0.281250 0.312500
vt 0.281250 0.750000
vt 0.281250 0.250000
vt 0.281250 0.687500
vt 0.281250 0.187500
vt 0.281250 0.625000
vt 0.281250 0.125000
vt 0.281250 0.562500
vt 0.281250 0.062500
vt 0.281250 0.500000
vt 0.296875 1.000000
vt 0.281250 0.937500
vt 0.296875 0.000000
vt 0.250000 0.187500
vt 0.250000 0.125000
vt 0.250000 0.625000
vt 0.250000 0.562500
vt 0.250000 0.062500
vt 0.250000 0.500000
vt 0.265625 1.000000
vt 0.250000 0.937500
vt 0.265625 0.000000
vt 0.250000 0.437500
vt 0.250000 0.875000
vt 0.250000 0.375000
vt 0.250000 0.812500
vt 0.250000 0.312500
vt 0.250000 0.750000
vt 0.250000 0.250000
vt 0.250000 0.687500
vt 0.218750 0.875000
vt 0.218750 0.812500
vt 0.218750 0.375000
vt 0.218750 0.312500
vt 0.218750 0.750000
vt 0.218750 0.250000
vt 0.218750 0.687500
vt 0.218750 0.187500
vt 0.218750 0.625000
vt 0.218750 0.125000
vt 0.218750 0.562500
vt 0.218750 0.062500
vt 0.218750 0.500000
vt 0.234375 1.000000
vt 0.218750 0.937500
vt 0.234375 0.000000
vt 0.218750 0.437500
vt 0.187500 0.625000
vt 0.187500 0.562500
vt 0.187500 0.125000
vt 0.187500 0.062500
vt 0.187500 0.500000
vt 0.203125 1.000000
vt 0.187500 0.937500
vt 0.203125 0.000000
vt 0.187500 0.437500
vt 0.187500 0.875000
vt 0.187500 0.375000
vt 0.187500 0.812500
vt 0.187500 0.312500
vt 0.187500 0.750000
vt 0.187500 0.250000
vt 0.187500 0.687500
vt 0.187500 0.187500
vt 0.156250 0.375000
vt 0.156250 0.312500
vt 0.156250 0.812500
vt 0.156250 0.750000
vt 0.156250 0.250000
vt 0.156250 0.687500
vt 0.156250 0.187500
vt 0.156250 0.625000
vt 0.156250 0.125000
vt 0.156250 0.562500
vt 0.156250 0.062500
vt 0.156250 0.500000
vt 0.171875 1.000000
vt 0.156250 0.937500
vt 0.171875 0.000000
vt 0.156250 0.437500
vt 0.156250 0.875000
vt 0.125000 0.125000
vt 0.125000 0.062500
vt 0.125000 0.562500
vt 0.125000 0.500000
vt 0.140625 1.000000
vt 0.125000 0.937500
vt 0.140625 0.000000
vt 0.125000 0.437500
vt 0.125000 0.875000
vt 0.125000 0.375000
vt 0.125000 0.812500
vt 0.125000 0.312500
vt 0.125000 0.750000
vt 0.125000 0.250000
vt 0.125000 0.687500
vt 0.125000 0.187500
vt 0.125000 0.625000
vt 0.093750 0.312500
vt 0.093750 0.250000
vt 0.093750 0.750000
vt 0.093750 0.687500
vt 0.093750 0.187500
vt 0.093750 0.625000
vt 0.093750 0.125000
vt 0.093750 0.562500
vt 0.093750 0.062500
vt 0.093750 0.500000
vt 0.109375 1.000000
vt 0.093750 0.937500
vt 0.109375 0.000000
vt 0.093750 0.437500
vt 0.093750 0.875000
vt 0.093750 0.375000
vt 0.093750 0.812500
vt 0.078125 1.000000
vt 0.062500 0.937500
vt 0.078125 0.000000
vt 0.062500 0.062500
vt 0.062500 0.500000
vt 0.062500 0.437500
vt 0.062500 0.875000
vt 0.062500 0.375000
vt 0.062500 0.812500
vt 0.062500 0.312500
vt 0.062500 0.750000
vt 0.062500 0.250000
vt 0.062500 0.687500
vt 0.062500 0.187500
vt 0.062500 0.625000
vt 0.062500 0.125000
vt 0.062500 0.562500
vt 0.031250 0.750000
vt 0.031250 0.687500
vt 0.031250 0.250000
vt 0.031250 0.187500
vt 0.031250 0.625000
vt 0.031250 0.125000
vt 0.031250 0.562500
vt 0.031250 0.062500
vt 0.031250 0.500000
vt 0.046875 1.000000
vt 0.031250 0.937500
vt 0.046875 0.000000
vt 0.031250 0.437500
vt 0.031250 0.875000
vt 0.031250 0.375000
vt 0.031250 0.812500
vt 0.031250 0.312500
vt 0.000000 0.500000
vt 0.000000 0.437500
vt 0.000000 0.937500
vt 0.000000 0.875000
vt 0.000000 0.375000
vt 0.000000 0.812500
vt 0.000000 0.312500
vt 0.000000 0.750000
vt 0.000000 0.250000
vt 0.000000 0.687500
vt 0.000000 0.187500
vt 0.000000 0.625000
vt 0.000000 0.125000
vt 0.000000 0.562500
vt 0.000000 0.062500
vt 0.015625 1.000000
vt 0.015625 0.000000
vt 1.000000 0.187500
vt 1.000000 0.250000
vt 0.968750 0.250000
vt 0.968750 0.187500
vt 1.000000 0.625000
vt 1.000000 0.687500
vt 0.968750 0.687500
vt 0.968750 0.625000
vt 1.000000 0.125000
vt 0.968750 0.125000
vt 1.000000 0.562500
vt 0.968750 0.562500
vt 1.000000 0.062500
vt 0.968750 0.062500
vt 1.000000 0.500000
vt 0.968750 0.500000
vt 1.000000 0.937500
vt 0.984375 1.000000
vt 0.968750 0.937500
vt 0.984375 0.000000
vt 1.000000 0.437500
vt 0.968750 0.437500
vt 1.000000 0.875000
vt 0.968750 0.875000
vt 1.000000 0.375000
vt 0.968750 0.375000
vt 1.000000 0.812500
vt 0.968750 0.812500
vt 1.000000 0.312500
vt 0.968750 0.312500
vt 1.000000 0.750000
vt 0.968750 0.750000
vt 0.937500 0.937500
vt 0.937500 0.875000
vt 0.937500 0.437500
vt 0.937500 0.375000
vt 0.937500 0.812500
vt 0.937500 0.312500
vt 0.937500 0.750000
vt 0.937500 0.250000
vt 0.937500 0.687500
vt 0.937500 0.187500
vt 0.937500 0.625000
vt 0.937500 0.125000
vt 0.937500 0.562500
vt 0.937500 0.062500
vt 0.937500 0.500000
vt 0.953125 1.000000
vt 0.953125 0.000000
vt 0.906250 0.687500
vt 0.906250 0.625000
vt 0.906250 0.187500
vt 0.906250 0.125000
vt 0.906250 0.562500
vt 0.906250 0.062500
vt 0.906250 0.500000
vt 0.921875 1.000000
vt 0.906250 0.937500
vt 0.921875 0.000000
vt 0.906250 0.437500
vt 0.906250 0.875000
vt 0.906250 0.375000
vt 0.906250 0.812500
vt 0.906250 0.312500
vt 0.906250 0.750000
vt 0.906250 0.250000
vt 0.875000 0.437500
vt 0.875000 0.375000
vt 0.875000 0.875000
vt 0.875000 0.812500
vt 0.875000 0.312500
vt 0.875000 0.750000
vt 0.875000 0.250000
vt 0.875000 0.687500
vt 0.875000 0.187500
vt 0.875000 0.625000
vt 0.875000 0.125000
vt 0.875000 0.562500
vt 0.875000 0.062500
vt 0.875000 0.500000
vt 0.890625 1.000000
vt 0.875000 0.937500
vt 0.890625 0.000000
vt 0.843750 0.187500
vt 0.843750 0.125000
vt 0.843750 0.625000
vt 0.843750 0.562500
vt 0.843750 0.062500
vt 0.843750 0.500000
vt 0.859375 1.000000
vt 0.843750 0.937500
vt 0.859375 0.000000
vt 0.843750 0.437500
vt 0.843750 0.875000
vt 0.843750 0.375000
vt 0.843750 0.812500
vt 0.843750 0.312500
vt 0.843750 0.750000
vt 0.843750 0.250000
vt 0.843750 0.687500
vt 0.812500 0.375000
vt 0.812500 0.312500
vt 0.812500 0.812500
vt 0.812500 0.750000
vt 0.812500 0.250000
vt 0.812500 0.687500
vt 0.812500 0.187500
vt 0.812500 0.625000
vt 0.812500 0.125000
vt 0.812500 0.562500
vt 0.812500 0.062500
vt 0.812500 0.500000
vt 0.828125 1.000000
vt 0.812500 0.937500
vt 0.828125 0.000000
vt 0.812500 0.437500
vt 0.812500 0.875000
vt 0.781250 0.125000
vt 0.781250 0.062500
vt 0.781250 0.562500
vt 0.781250 0.500000
vt 0.796875 1.000000
vt 0.781250 0.937500
vt 0.796875 0.000000
vt 0.781250 0.437500
vt 0.781250 0.875000
vt 0.781250 0.375000
vt 0.781250 0.812500
vt 0.781250 0.312500
vt 0.781250 0.750000
vt 0.781250 0.250000
vt 0.781250 0.687500
vt 0.781250 0.187500
vt 0.781250 0.625000
vt 0.765625 1.000000
vt 0.765625 0.000000
s 0
usemtl Grey_Color
f 9/1/1 14/2/1 6/3/1 1/4/1
f 22/5/2 49/6/2 61/7/2 24/8/2
f 16/9/3 12/10/3 13/11/3 38/12/3 40/13/3
f 38/12/4 13/11/4 10/14/4 33/15/4
f 25/16/5 57/17/5 53/18/5 26/19/5
f 1/4/6 6/3/6 7/20/6 3/21/6
f 3/21/7 7/20/7 8/22/7 4/23/7
f 14/2/8 9/1/8 11/24/8 15/25/8
f 15/25/9 11/24/9 12/10/9 16/9/9
f 40/26/10 39/27/10 27/28/10 29/29/10 8/30/10 16/31/10
f 34/32/11 22/5/11 27/28/11 39/33/11
f 2/34/12 10/14/12 13/35/12 5/36/12
f 5/36/13 13/35/13 12/37/13 4/38/13
f 4/39/14 12/40/14 11/24/14 3/21/14
f 3/21/15 11/24/15 9/1/15 1/4/15
f 5/41/16 28/42/16 23/43/16 2/44/16
f 4/45/17 8/46/17 29/47/17 28/48/17 5/41/17
f 16/49/18 8/50/18 7/20/18 15/25/18
f 15/25/19 7/20/19 6/3/19 14/2/19
f 90/51/20 89/51/20 96/51/20 93/51/20 84/51/20
f 21/51/21 17/51/21 18/51/21 19/51/21
f 89/52/22 19/53/22 18/51/22 97/51/22
f 88/54/22 91/55/22 68/56/22 70/57/22 71/58/22 69/59/22 33/60/22 10/14/22 20/61/22
f 2/44/23 23/62/23 44/63/23 46/64/23 47/65/23 45/66/23 86/67/23 85/68/23 21/69/23
f 27/28/24 30/70/24 29/29/24
f 30/70/25 31/71/25 29/29/25
f 31/71/26 32/72/26 29/29/26
f 32/72/27 28/73/27 29/29/27
f 27/28/28 22/5/28 24/74/28 30/75/28
f 30/75/29 24/74/29 25/76/29 31/77/29
f 31/78/30 25/79/30 26/80/30 32/81/30
f 32/81/31 26/80/31 23/43/31 28/42/31
f 65/82/32 49/6/32 22/5/32 34/83/32
f 37/84/33 73/85/33 65/86/33 34/83/33
f 24/8/34 61/7/34 57/87/34 25/88/34
f 17/51/23 21/51/23 85/51/23 94/51/23
f 85/89/35 87/90/35 84/91/35 90/92/35 89/52/35 19/53/35 10/14/35 2/34/35 21/93/35
f 38/12/36 41/94/36 40/13/36
f 41/94/37 42/95/37 40/13/37
f 42/95/38 43/96/38 40/13/38
f 43/96/39 39/97/39 40/13/39
f 34/32/40 39/33/40 43/98/40 37/99/40
f 37/99/41 43/98/41 42/100/41 36/101/41
f 36/102/42 42/103/42 41/104/42 35/105/42
f 35/105/43 41/104/43 38/12/43 33/15/43
f 36/106/44 77/107/44 73/108/44 37/84/44
f 35/109/45 81/110/45 77/107/45 36/106/45
f 17/51/46 94/51/46 97/51/46 18/51/46
f 33/60/47 69/59/47 81/111/47 35/109/47
f 48/112/48 60/113/48 62/114/48 50/115/48
f 50/115/49 62/114/49 63/116/49 51/117/49
f 51/118/50 63/119/50 61/7/50 49/6/50
f 60/113/51 56/120/51 58/121/51 62/114/51
f 62/114/52 58/121/52 59/122/52 63/123/52
f 63/124/53 59/125/53 57/87/53 61/7/53
f 56/120/54 52/126/54 54/127/54 58/121/54
f 58/121/55 54/127/55 55/128/55 59/129/55
f 59/130/56 55/131/56 53/18/56 57/17/56
f 52/126/57 45/132/57 47/65/57 54/127/57
f 54/127/58 47/65/58 46/64/58 55/133/58
f 55/133/59 46/64/59 44/63/59 53/134/59
f 68/56/60 80/135/60 82/136/60 70/57/60
f 70/57/61 82/136/61 83/137/61 71/58/61
f 71/58/62 83/137/62 81/111/62 69/59/62
f 80/135/63 76/138/63 78/139/63 82/136/63
f 82/136/64 78/139/64 79/140/64 83/137/64
f 83/137/65 79/140/65 77/107/65 81/110/65
f 76/138/66 72/141/66 74/142/66 78/139/66
f 78/139/67 74/142/67 75/143/67 79/140/67
f 79/140/68 75/143/68 73/108/68 77/107/68
f 72/141/69 64/144/69 66/145/69 74/142/69
f 74/142/70 66/145/70 67/146/70 75/147/70
f 75/148/71 67/149/71 65/86/71 73/85/71
f 64/144/72 48/112/72 50/115/72 66/145/72
f 66/145/73 50/115/73 51/150/73 67/151/73
f 67/152/74 51/153/74 49/6/74 65/82/74
f 26/19/75 53/134/75 44/63/75 23/62/75
f 84/51/76 87/51/76 86/51/76
f 87/51/77 85/51/77 86/51/77
f 88/51/78 92/51/78 89/51/78 90/51/78 91/51/78
f 84/51/79 93/51/79 95/51/79 87/51/79
f 87/51/80 95/51/80 94/51/80 85/51/80
f 88/51/81 97/51/81 98/51/81 92/51/81
f 92/154/82 98/155/82 96/156/82 89/52/82
f 93/51/83 96/51/83 98/51/83 95/51/83
f 95/51/84 98/51/84 97/51/84 94/51/84
f 84/157/85 86/67/85 45/132/85 52/126/85 56/120/85 60/113/85 48/112/85 64/144/85 72/141/85 76/138/85 80/135/85 68/56/85 91/158/85 90/159/85
usemtl White_Color
f 578/160/86 108/161/86 120/162/86 121/163/86
f 102/164/87 101/165/87 113/166/87 114/167/87
f 109/168/88 578/160/88 121/163/88 122/169/88
f 103/170/89 102/164/89 114/167/89 115/171/89
f 110/172/90 109/168/90 122/169/90 123/173/90
f 104/174/91 103/170/91 115/171/91 116/175/91
f 579/176/92 110/172/92 123/173/92 124/177/92
f 105/178/93 104/174/93 116/175/93 117/179/93
f 580/180/94 579/176/94 124/177/94 125/181/94
f 106/182/95 105/178/95 117/179/95 118/183/95
f 99/184/96 396/185/96 111/186/96
f 427/187/97 580/180/97 125/181/97
f 107/188/98 106/182/98 118/183/98 119/189/98
f 100/190/99 99/184/99 111/186/99 112/191/99
f 108/161/100 107/188/100 119/189/100 120/162/100
f 101/165/101 100/190/101 112/191/101 113/166/101
f 120/162/102 119/189/102 134/192/102 135/193/102
f 113/166/103 112/191/103 127/194/103 128/195/103
f 121/163/104 120/162/104 135/193/104 136/196/104
f 114/167/105 113/166/105 128/195/105 129/197/105
f 122/169/106 121/163/106 136/196/106 137/198/106
f 115/171/107 114/167/107 129/197/107 130/199/107
f 123/173/108 122/169/108 137/198/108 138/200/108
f 116/175/109 115/171/109 130/199/109 131/201/109
f 124/177/110 123/173/110 138/200/110 139/202/110
f 117/179/111 116/175/111 131/201/111 132/203/111
f 125/181/112 124/177/112 139/202/112 140/204/112
f 118/183/113 117/179/113 132/203/113 133/205/113
f 111/186/114 396/206/114 126/207/114
f 427/208/115 125/181/115 140/204/115
f 119/189/116 118/183/116 133/205/116 134/192/116
f 112/191/117 111/186/117 126/207/117 127/194/117
f 139/202/118 138/200/118 153/209/118 154/210/118
f 132/203/119 131/201/119 146/211/119 147/212/119
f 140/204/120 139/202/120 154/210/120 155/213/120
f 133/205/121 132/203/121 147/212/121 148/214/121
f 126/207/122 396/215/122 141/216/122
f 427/217/123 140/204/123 155/213/123
f 134/192/124 133/205/124 148/214/124 149/218/124
f 127/194/125 126/207/125 141/216/125 142/219/125
f 135/193/126 134/192/126 149/218/126 150/220/126
f 128/195/127 127/194/127 142/219/127 143/221/127
f 136/196/128 135/193/128 150/220/128 151/222/128
f 129/197/129 128/195/129 143/221/129 144/223/129
f 137/198/130 136/196/130 151/222/130 152/224/130
f 130/199/131 129/197/131 144/223/131 145/225/131
f 138/200/132 137/198/132 152/224/132 153/209/132
f 131/201/133 130/199/133 145/225/133 146/211/133
f 143/221/134 142/219/134 157/226/134 158/227/134
f 151/222/135 150/220/135 165/228/135 166/229/135
f 144/223/136 143/221/136 158/227/136 159/230/136
f 152/224/137 151/222/137 166/229/137 167/231/137
f 145/225/138 144/223/138 159/230/138 160/232/138
f 153/209/139 152/224/139 167/231/139 168/233/139
f 146/211/140 145/225/140 160/232/140 161/234/140
f 154/210/141 153/209/141 168/233/141 169/235/141
f 147/212/142 146/211/142 161/234/142 162/236/142
f 155/213/143 154/210/143 169/235/143 170/237/143
f 148/214/144 147/212/144 162/236/144 163/238/144
f 141/216/145 396/239/145 156/240/145
f 427/241/146 155/213/146 170/237/146
f 149/218/147 148/214/147 163/238/147 164/242/147
f 142/219/148 141/216/148 156/240/148 157/226/148
f 150/220/149 149/218/149 164/242/149 165/228/149
f 162/236/150 161/234/150 176/243/150 177/244/150
f 170/237/151 169/235/151 184/245/151 185/246/151
f 163/238/152 162/236/152 177/244/152 178/247/152
f 156/240/153 396/248/153 171/249/153
f 427/250/154 170/237/154 185/246/154
f 164/242/155 163/238/155 178/247/155 179/251/155
f 157/226/156 156/240/156 171/249/156 172/252/156
f 165/228/157 164/242/157 179/251/157 180/253/157
f 158/227/158 157/226/158 172/252/158 173/254/158
f 166/229/159 165/228/159 180/253/159 181/255/159
f 159/230/160 158/227/160 173/254/160 174/256/160
f 167/231/161 166/229/161 181/255/161 182/257/161
f 160/232/162 159/230/162 174/256/162 175/258/162
f 168/233/163 167/231/163 182/257/163 183/259/163
f 161/234/164 160/232/164 175/258/164 176/243/164
f 169/235/165 168/233/165 183/259/165 184/245/165
f 181/255/166 180/253/166 195/260/166 196/261/166
f 174/256/167 173/254/167 188/262/167 189/263/167
f 182/257/168 181/255/168 196/261/168 197/264/168
f 175/258/169 174/256/169 189/263/169 190/265/169
f 183/259/170 182/257/170 197/264/170 198/266/170
f 176/243/171 175/258/171 190/265/171 191/267/171
f 184/245/172 183/259/172 198/266/172 199/268/172
f 177/244/173 176/243/173 191/267/173 192/269/173
f 185/246/174 184/245/174 199/268/174 200/270/174
f 178/247/175 177/244/175 192/269/175 193/271/175
f 171/249/176 396/272/176 186/273/176
f 427/274/177 185/246/177 200/270/177
f 179/251/178 178/247/178 193/271/178 194/275/178
f 172/252/179 171/249/179 186/273/179 187/276/179
f 180/253/180 179/251/180 194/275/180 195/260/180
f 173/254/181 172/252/181 187/276/181 188/262/181
f 200/270/182 199/268/182 214/277/182 215/278/182
f 193/271/183 192/269/183 207/279/183 208/280/183
f 186/273/184 396/281/184 201/282/184
f 427/283/185 200/270/185 215/278/185
f 194/275/186 193/271/186 208/280/186 209/284/186
f 187/276/187 186/273/187 201/282/187 202/285/187
f 195/260/188 194/275/188 209/284/188 210/286/188
f 188/262/189 187/276/189 202/285/189 203/287/189
f 196/261/190 195/260/190 210/286/190 211/288/190
f 189/263/191 188/262/191 203/287/191 204/289/191
f 197/264/192 196/261/192 211/288/192 212/290/192
f 190/265/193 189/263/193 204/289/193 205/291/193
f 198/266/194 197/264/194 212/290/194 213/292/194
f 191/267/195 190/265/195 205/291/195 206/293/195
f 199/268/196 198/266/196 213/292/196 214/277/196
f 192/269/197 191/267/197 206/293/197 207/279/197
f 204/289/198 203/287/198 218/294/198 219/295/198
f 212/290/199 211/288/199 226/296/199 227/297/199
f 205/291/200 204/289/200 219/295/200 220/298/200
f 213/292/201 212/290/201 227/297/201 228/299/201
f 206/293/202 205/291/202 220/298/202 221/300/202
f 214/277/203 213/292/203 228/299/203 229/301/203
f 207/279/204 206/293/204 221/300/204 222/302/204
f 215/278/205 214/277/205 229/301/205 230/303/205
f 208/280/206 207/279/206 222/302/206 223/304/206
f 201/282/207 396/305/207 216/306/207
f 427/307/208 215/278/208 230/303/208
f 209/284/209 208/280/209 223/304/209 224/308/209
f 202/285/210 201/282/210 216/306/210 217/309/210
f 210/286/211 209/284/211 224/308/211 225/310/211
f 203/287/212 202/285/212 217/309/212 218/294/212
f 211/288/213 210/286/213 225/310/213 226/296/213
f 223/304/214 222/302/214 237/311/214 238/312/214
f 216/306/215 396/313/215 231/314/215
f 427/315/216 230/303/216 245/316/216
f 224/308/217 223/304/217 238/312/217 239/317/217
f 217/309/218 216/306/218 231/314/218 232/318/218
f 225/310/219 224/308/219 239/317/219 240/319/219
f 218/294/220 217/309/220 232/318/220 233/320/220
f 226/296/221 225/310/221 240/319/221 241/321/221
f 219/295/222 218/294/222 233/320/222 234/322/222
f 227/297/223 226/296/223 241/321/223 242/323/223
f 220/298/224 219/295/224 234/322/224 235/324/224
f 228/299/225 227/297/225 242/323/225 243/325/225
f 221/300/226 220/298/226 235/324/226 236/326/226
f 229/301/227 228/299/227 243/325/227 244/327/227
f 222/302/228 221/300/228 236/326/228 237/311/228
f 230/303/229 229/301/229 244/327/229 245/316/229
f 242/323/230 241/321/230 256/328/230 257/329/230
f 235/324/231 234/322/231 249/330/231 250/331/231
f 243/325/232 242/323/232 257/329/232 258/332/232
f 236/326/233 235/324/233 250/331/233 251/333/233
f 244/327/234 243/325/234 258/332/234 259/334/234
f 237/311/235 236/326/235 251/333/235 252/335/235
f 245/316/236 244/327/236 259/334/236 260/336/236
f 238/312/237 237/311/237 252/335/237 253/337/237
f 231/314/238 396/338/238 246/339/238
f 427/340/239 245/316/239 260/336/239
f 239/317/240 238/312/240 253/337/240 254/341/240
f 232/318/241 231/314/241 246/339/241 247/342/241
f 240/319/242 239/317/242 254/341/242 255/343/242
f 233/320/243 232/318/243 247/342/243 248/344/243
f 241/321/244 240/319/244 255/343/244 256/328/244
f 234/322/245 233/320/245 248/344/245 249/330/245
f 427/345/246 260/336/246 275/346/246
f 254/341/247 253/337/247 268/347/247 269/348/247
f 247/342/248 246/339/248 261/349/248 262/350/248
f 255/343/249 254/341/249 269/348/249 270/351/249
f 248/344/250 247/342/250 262/350/250 263/352/250
f 256/328/251 255/343/251 270/351/251 271/353/251
f 249/330/252 248/344/252 263/352/252 264/354/252
f 257/329/253 256/328/253 271/353/253 272/355/253
f 250/331/254 249/330/254 264/354/254 265/356/254
f 258/332/255 257/329/255 272/355/255 273/357/255
f 251/333/256 250/331/256 265/356/256 266/358/256
f 259/334/257 258/332/257 273/357/257 274/359/257
f 252/335/258 251/333/258 266/358/258 267/360/258
f 260/336/259 259/334/259 274/359/259 275/346/259
f 253/337/260 252/335/260 267/360/260 268/347/260
f 246/339/261 396/361/261 261/349/261
f 273/357/262 272/355/262 287/362/262 288/363/262
f 266/358/263 265/356/263 280/364/263 281/365/263
f 274/359/264 273/357/264 288/363/264 289/366/264
f 267/360/265 266/358/265 281/365/265 282/367/265
f 275/346/266 274/359/266 289/366/266 290/368/266
f 268/347/267 267/360/267 282/367/267 283/369/267
f 261/349/268 396/370/268 276/371/268
f 427/372/269 275/346/269 290/368/269
f 269/348/270 268/347/270 283/369/270 284/373/270
f 262/350/271 261/349/271 276/371/271 277/374/271
f 270/351/272 269/348/272 284/373/272 285/375/272
f 263/352/273 262/350/273 277/374/273 278/376/273
f 271/353/274 270/351/274 285/375/274 286/377/274
f 264/354/275 263/352/275 278/376/275 279/378/275
f 272/355/276 271/353/276 286/377/276 287/362/276
f 265/356/277 264/354/277 279/378/277 280/364/277
f 277/374/278 276/371/278 291/379/278 292/380/278
f 285/375/279 284/373/279 299/381/279 300/382/279
f 278/376/280 277/374/280 292/380/280 293/383/280
f 286/377/281 285/375/281 300/382/281 301/384/281
f 279/378/282 278/376/282 293/383/282 294/385/282
f 287/362/283 286/377/283 301/384/283 302/386/283
f 280/364/284 279/378/284 294/385/284 295/387/284
f 288/363/285 287/362/285 302/386/285 303/388/285
f 281/365/286 280/364/286 295/387/286 296/389/286
f 289/366/287 288/363/287 303/388/287 304/390/287
f 282/367/288 281/365/288 296/389/288 297/391/288
f 290/368/289 289/366/289 304/390/289 305/392/289
f 283/369/290 282/367/290 297/391/290 298/393/290
f 276/371/291 396/394/291 291/379/291
f 427/395/292 290/368/292 305/392/292
f 284/373/293 283/369/293 298/393/293 299/381/293
f 296/389/294 295/387/294 310/396/294 311/397/294
f 304/390/295 303/388/295 318/398/295 319/399/295
f 297/391/296 296/389/296 311/397/296 312/400/296
f 305/392/297 304/390/297 319/399/297 320/401/297
f 298/393/298 297/391/298 312/400/298 313/402/298
f 291/379/299 396/403/299 306/404/299
f 427/405/300 305/392/300 320/401/300
f 299/381/301 298/393/301 313/402/301 314/406/301
f 292/380/302 291/379/302 306/404/302 307/407/302
f 300/382/303 299/381/303 314/406/303 315/408/303
f 293/383/304 292/380/304 307/407/304 308/409/304
f 301/384/305 300/382/305 315/408/305 316/410/305
f 294/385/306 293/383/306 308/409/306 309/411/306
f 302/386/307 301/384/307 316/410/307 317/412/307
f 295/387/308 294/385/308 309/411/308 310/396/308
f 303/388/309 302/386/309 317/412/309 318/398/309
f 315/408/310 314/406/310 329/413/310 330/414/310
f 308/409/311 307/407/311 322/415/311 323/416/311
f 316/410/312 315/408/312 330/414/312 331/417/312
f 309/411/313 308/409/313 323/416/313 324/418/313
f 317/412/314 316/410/314 331/417/314 332/419/314
f 310/396/315 309/411/315 324/418/315 325/420/315
f 318/398/316 317/412/316 332/419/316 333/421/316
f 311/397/317 310/396/317 325/420/317 326/422/317
f 319/399/318 318/398/318 333/421/318 334/423/318
f 312/400/319 311/397/319 326/422/319 327/424/319
f 320/401/320 319/399/320 334/423/320 335/425/320
f 313/402/321 312/400/321 327/424/321 328/426/321
f 306/404/322 396/427/322 321/428/322
f 427/429/323 320/401/323 335/425/323
f 314/406/324 313/402/324 328/426/324 329/413/324
f 307/407/325 306/404/325 321/428/325 322/415/325
f 334/423/326 333/421/326 348/430/326 349/431/326
f 327/424/327 326/422/327 341/432/327 342/433/327
f 335/425/328 334/423/328 349/431/328 350/434/328
f 328/426/329 327/424/329 342/433/329 343/435/329
f 321/428/330 396/436/330 336/437/330
f 427/438/331 335/425/331 350/434/331
f 329/413/332 328/426/332 343/435/332 344/439/332
f 322/415/333 321/428/333 336/437/333 337/440/333
f 330/414/334 329/413/334 344/439/334 345/441/334
f 323/416/335 322/415/335 337/440/335 338/442/335
f 331/417/336 330/414/336 345/441/336 346/443/336
f 324/418/337 323/416/337 338/442/337 339/444/337
f 332/419/338 331/417/338 346/443/338 347/445/338
f 325/420/339 324/418/339 339/444/339 340/446/339
f 333/421/340 332/419/340 347/445/340 348/430/340
f 326/422/341 325/420/341 340/446/341 341/432/341
f 338/442/342 337/440/342 352/447/342 353/448/342
f 346/443/343 345/441/343 360/449/343 361/450/343
f 339/444/344 338/442/344 353/448/344 354/451/344
f 347/445/345 346/443/345 361/450/345 362/452/345
f 340/446/346 339/444/346 354/451/346 355/453/346
f 348/430/347 347/445/347 362/452/347 363/454/347
f 341/432/348 340/446/348 355/453/348 356/455/348
f 349/431/349 348/430/349 363/454/349 364/456/349
f 342/433/350 341/432/350 356/455/350 357/457/350
f 350/434/351 349/431/351 364/456/351 365/458/351
f 343/435/352 342/433/352 357/457/352 358/459/352
f 336/437/353 396/460/353 351/461/353
f 427/462/354 350/434/354 365/458/354
f 344/439/355 343/435/355 358/459/355 359/463/355
f 337/440/356 336/437/356 351/461/356 352/447/356
f 345/441/357 344/439/357 359/463/357 360/449/357
f 357/457/358 356/455/358 371/464/358 372/465/358
f 365/458/359 364/456/359 379/466/359 380/467/359
f 358/459/360 357/457/360 372/465/360 373/468/360
f 351/461/361 396/469/361 366/470/361
f 427/471/362 365/458/362 380/467/362
f 359/463/363 358/459/363 373/468/363 374/472/363
f 352/447/364 351/461/364 366/470/364 367/473/364
f 360/449/365 359/463/365 374/472/365 375/474/365
f 353/448/366 352/447/366 367/473/366 368/475/366
f 361/450/367 360/449/367 375/474/367 376/476/367
f 354/451/368 353/448/368 368/475/368 369/477/368
f 362/452/369 361/450/369 376/476/369 377/478/369
f 355/453/370 354/451/370 369/477/370 370/479/370
f 363/454/371 362/452/371 377/478/371 378/480/371
f 356/455/372 355/453/372 370/479/372 371/464/372
f 364/456/373 363/454/373 378/480/373 379/466/373
f 376/476/374 375/474/374 390/481/374 391/482/374
f 369/477/375 368/475/375 383/483/375 384/484/375
f 377/478/376 376/476/376 391/482/376 392/485/376
f 370/479/377 369/477/377 384/484/377 385/486/377
f 378/480/378 377/478/378 392/485/378 393/487/378
f 371/464/379 370/479/379 385/486/379 386/488/379
f 379/466/380 378/480/380 393/487/380 394/489/380
f 372/465/381 371/464/381 386/488/381 387/490/381
f 380/467/382 379/466/382 394/489/382 395/491/382
f 373/468/383 372/465/383 387/490/383 388/492/383
f 366/470/384 396/493/384 381/494/384
f 427/495/385 380/467/385 395/491/385
f 374/472/386 373/468/386 388/492/386 389/496/386
f 367/473/387 366/470/387 381/494/387 382/497/387
f 375/474/388 374/472/388 389/496/388 390/481/388
f 368/475/389 367/473/389 382/497/389 383/483/389
f 395/491/390 394/489/390 410/498/390 411/499/390
f 388/492/391 387/490/391 403/500/391 404/501/391
f 381/494/392 396/502/392 397/503/392
f 427/504/393 395/491/393 411/499/393
f 389/496/394 388/492/394 404/501/394 405/505/394
f 382/497/395 381/494/395 397/503/395 398/506/395
f 390/481/396 389/496/396 405/505/396 406/507/396
f 383/483/397 382/497/397 398/506/397 399/508/397
f 391/482/398 390/481/398 406/507/398 407/509/398
f 384/484/399 383/483/399 399/508/399 400/510/399
f 392/485/400 391/482/400 407/509/400 408/511/400
f 385/486/401 384/484/401 400/510/401 401/512/401
f 393/487/402 392/485/402 408/511/402 409/513/402
f 386/488/403 385/486/403 401/512/403 402/514/403
f 394/489/404 393/487/404 409/513/404 410/498/404
f 387/490/405 386/488/405 402/514/405 403/500/405
f 408/511/406 407/509/406 422/515/406 423/516/406
f 401/512/407 400/510/407 415/517/407 416/518/407
f 409/513/408 408/511/408 423/516/408 424/519/408
f 402/514/409 401/512/409 416/518/409 417/520/409
f 410/498/410 409/513/410 424/519/410 425/521/410
f 403/500/411 402/514/411 417/520/411 418/522/411
f 411/499/412 410/498/412 425/521/412 426/523/412
f 404/501/413 403/500/413 418/522/413 419/524/413
f 397/503/414 396/525/414 412/526/414
f 427/527/415 411/499/415 426/523/415
f 405/505/416 404/501/416 419/524/416 420/528/416
f 398/506/417 397/503/417 412/526/417 413/529/417
f 406/507/418 405/505/418 420/528/418 421/530/418
f 399/508/419 398/506/419 413/529/419 414/531/419
f 407/509/420 406/507/420 421/530/420 422/515/420
f 400/510/421 399/508/421 414/531/421 415/517/421
f 412/526/422 396/532/422 428/533/422
f 427/534/423 426/523/423 442/535/423
f 420/528/424 419/524/424 435/536/424 436/537/424
f 413/529/425 412/526/425 428/533/425 429/538/425
f 421/530/426 420/528/426 436/537/426 437/539/426
f 414/531/427 413/529/427 429/538/427 430/540/427
f 422/515/428 421/530/428 437/539/428 438/541/428
f 415/517/429 414/531/429 430/540/429 431/542/429
f 423/516/430 422/515/430 438/541/430 439/543/430
f 416/518/431 415/517/431 431/542/431 432/544/431
f 424/519/432 423/516/432 439/543/432 440/545/432
f 417/520/433 416/518/433 432/544/433 433/546/433
f 425/521/434 424/519/434 440/545/434 441/547/434
f 418/522/435 417/520/435 433/546/435 434/548/435
f 426/523/436 425/521/436 441/547/436 442/535/436
f 419/524/437 418/522/437 434/548/437 435/536/437
f 432/544/438 431/542/438 446/549/438 447/550/438
f 440/545/439 439/543/439 454/551/439 455/552/439
f 433/546/440 432/544/440 447/550/440 448/553/440
f 441/547/441 440/545/441 455/552/441 456/554/441
f 434/548/442 433/546/442 448/553/442 449/555/442
f 442/535/443 441/547/443 456/554/443 457/556/443
f 435/536/444 434/548/444 449/555/444 450/557/444
f 428/533/445 396/558/445 443/559/445
f 427/560/446 442/535/446 457/556/446
f 436/537/447 435/536/447 450/557/447 451/561/447
f 429/538/448 428/533/448 443/559/448 444/562/448
f 437/539/449 436/537/449 451/561/449 452/563/449
f 430/540/450 429/538/450 444/562/450 445/564/450
f 438/541/451 437/539/451 452/563/451 453/565/451
f 431/542/452 430/540/452 445/564/452 446/549/452
f 439/543/453 438/541/453 453/565/453 454/551/453
f 451/561/454 450/557/454 465/566/454 466/567/454
f 444/562/455 443/559/455 458/568/455 459/569/455
f 452/563/456 451/561/456 466/567/456 467/570/456
f 445/564/457 444/562/457 459/569/457 460/571/457
f 453/565/458 452/563/458 467/570/458 468/572/458
f 446/549/459 445/564/459 460/571/459 461/573/459
f 454/551/460 453/565/460 468/572/460 469/574/460
f 447/550/461 446/549/461 461/573/461 462/575/461
f 455/552/462 454/551/462 469/574/462 470/576/462
f 448/553/463 447/550/463 462/575/463 463/577/463
f 456/554/464 455/552/464 470/576/464 471/578/464
f 449/555/465 448/553/465 463/577/465 464/579/465
f 457/556/466 456/554/466 471/578/466 472/580/466
f 450/557/467 449/555/467 464/579/467 465/566/467
f 443/559/468 396/581/468 458/568/468
f 427/582/469 457/556/469 472/580/469
f 470/583/470 469/584/470 484/585/470 485/586/470
f 463/587/471 462/588/471 477/589/471 478/590/471
f 471/591/472 470/583/472 485/586/472 486/592/472
f 464/593/473 463/587/473 478/590/473 479/594/473
f 472/595/474 471/591/474 486/592/474 487/596/474
f 465/597/475 464/593/475 479/594/475 480/598/475
f 458/599/476 396/600/476 473/601/476
f 427/602/477 472/595/477 487/596/477
f 466/603/478 465/597/478 480/598/478 481/604/478
f 459/605/479 458/599/479 473/601/479 474/606/479
f 467/607/480 466/603/480 481/604/480 482/608/480
f 460/609/481 459/605/481 474/606/481 475/610/481
f 468/611/482 467/607/482 482/608/482 483/612/482
f 461/613/483 460/609/483 475/610/483 476/614/483
f 469/584/484 468/611/484 483/612/484 484/585/484
f 462/588/485 461/613/485 476/614/485 477/589/485
f 474/606/486 473/601/486 488/615/486 489/616/486
f 482/608/487 481/604/487 496/617/487 497/618/487
f 475/610/488 474/606/488 489/616/488 490/619/488
f 483/612/489 482/608/489 497/618/489 498/620/489
f 476/614/490 475/610/490 490/619/490 491/621/490
f 484/585/491 483/612/491 498/620/491 499/622/491
f 477/589/492 476/614/492 491/621/492 492/623/492
f 485/586/493 484/585/493 499/622/493 500/624/493
f 478/590/494 477/589/494 492/623/494 493/625/494
f 486/592/495 485/586/495 500/624/495 501/626/495
f 479/594/496 478/590/496 493/625/496 494/627/496
f 487/596/497 486/592/497 501/626/497 502/628/497
f 480/598/498 479/594/498 494/627/498 495/629/498
f 473/601/499 396/630/499 488/615/499
f 427/631/500 487/596/500 502/628/500
f 481/604/501 480/598/501 495/629/501 496/617/501
f 493/625/502 492/623/502 507/632/502 508/633/502
f 501/626/503 500/624/503 515/634/503 516/635/503
f 494/627/504 493/625/504 508/633/504 509/636/504
f 502/628/505 501/626/505 516/635/505 517/637/505
f 495/629/506 494/627/506 509/636/506 510/638/506
f 488/615/507 396/639/507 503/640/507
f 427/641/508 502/628/508 517/637/508
f 496/617/509 495/629/509 510/638/509 511/642/509
f 489/616/510 488/615/510 503/640/510 504/643/510
f 497/618/511 496/617/511 511/642/511 512/644/511
f 490/619/512 489/616/512 504/643/512 505/645/512
f 498/620/513 497/618/513 512/644/513 513/646/513
f 491/621/514 490/619/514 505/645/514 506/647/514
f 499/622/515 498/620/515 513/646/515 514/648/515
f 492/623/516 491/621/516 506/647/516 507/632/516
f 500/624/517 499/622/517 514/648/517 515/634/517
f 512/644/518 511/642/518 526/649/518 527/650/518
f 505/645/519 504/643/519 519/651/519 520/652/519
f 513/646/520 512/644/520 527/650/520 528/653/520
f 506/647/521 505/645/521 520/652/521 521/654/521
f 514/648/522 513/646/522 528/653/522 529/655/522
f 507/632/523 506/647/523 521/654/523 522/656/523
f 515/634/524 514/648/524 529/655/524 530/657/524
f 508/633/525 507/632/525 522/656/525 523/658/525
f 516/635/526 515/634/526 530/657/526 531/659/526
f 509/636/527 508/633/527 523/658/527 524/660/527
f 517/637/528 516/635/528 531/659/528 532/661/528
f 510/638/529 509/636/529 524/660/529 525/662/529
f 503/640/530 396/663/530 518/664/530
f 427/665/531 517/637/531 532/661/531
f 511/642/532 510/638/532 525/662/532 526/649/532
f 504/643/533 503/640/533 518/664/533 519/651/533
f 531/659/534 530/657/534 545/666/534 546/667/534
f 524/660/535 523/658/535 538/668/535 539/669/535
f 532/661/536 531/659/536 546/667/536 547/670/536
f 525/662/537 524/660/537 539/669/537 540/671/537
f 518/664/538 396/672/538 533/673/538
f 427/674/539 532/661/539 547/670/539
f 526/649/540 525/662/540 540/671/540 541/675/540
f 519/651/541 518/664/541 533/673/541 534/676/541
f 527/650/542 526/649/542 541/675/542 542/677/542
f 520/652/543 519/651/543 534/676/543 535/678/543
f 528/653/544 527/650/544 542/677/544 543/679/544
f 521/654/545 520/652/545 535/678/545 536/680/545
f 529/655/546 528/653/546 543/679/546 544/681/546
f 522/656/547 521/654/547 536/680/547 537/682/547
f 530/657/548 529/655/548 544/681/548 545/666/548
f 523/658/549 522/656/549 537/682/549 538/668/549
f 543/679/550 542/677/550 557/683/550 558/684/550
f 536/680/551 535/678/551 550/685/551 551/686/551
f 544/681/552 543/679/552 558/684/552 559/687/552
f 537/682/553 536/680/553 551/686/553 552/688/553
f 545/666/554 544/681/554 559/687/554 560/689/554
f 538/668/555 537/682/555 552/688/555 553/690/555
f 546/667/556 545/666/556 560/689/556 561/691/556
f 539/669/557 538/668/557 553/690/557 554/692/557
f 547/670/558 546/667/558 561/691/558 562/693/558
f 540/671/559 539/669/559 554/692/559 555/694/559
f 533/673/560 396/695/560 548/696/560
f 427/697/561 547/670/561 562/693/561
f 541/675/562 540/671/562 555/694/562 556/698/562
f 534/676/563 533/673/563 548/696/563 549/699/563
f 542/677/564 541/675/564 556/698/564 557/683/564
f 535/678/565 534/676/565 549/699/565 550/685/565
f 562/693/566 561/691/566 576/700/566 577/701/566
f 555/694/567 554/692/567 569/702/567 570/703/567
f 548/696/568 396/704/568 563/705/568
f 427/706/569 562/693/569 577/701/569
f 556/698/570 555/694/570 570/703/570 571/707/570
f 549/699/571 548/696/571 563/705/571 564/708/571
f 557/683/572 556/698/572 571/707/572 572/709/572
f 550/685/573 549/699/573 564/708/573 565/710/573
f 558/684/574 557/683/574 572/709/574 573/711/574
f 551/686/575 550/685/575 565/710/575 566/712/575
f 559/687/576 558/684/576 573/711/576 574/713/576
f 552/688/577 551/686/577 566/712/577 567/714/577
f 560/689/578 559/687/578 574/713/578 575/715/578
f 553/690/579 552/688/579 567/714/579 568/716/579
f 561/691/580 560/689/580 575/715/580 576/700/580
f 554/692/581 553/690/581 568/716/581 569/702/581
f 566/712/582 565/710/582 101/165/582 102/164/582
f 574/713/583 573/711/583 578/160/583 109/168/583
f 567/714/584 566/712/584 102/164/584 103/170/584
f 575/715/585 574/713/585 109/168/585 110/172/585
f 568/716/586 567/714/586 103/170/586 104/174/586
f 576/700/587 575/715/587 110/172/587 579/176/587
f 569/702/588 568/716/588 104/174/588 105/178/588
f 577/701/589 576/700/589 579/176/589 580/180/589
f 570/703/590 569/702/590 105/178/590 106/182/590
f 563/705/591 396/717/591 99/184/591
f 427/718/592 577/701/592 580/180/592
f 571/707/593 570/703/593 106/182/593 107/188/593
f 564/708/594 563/705/594 99/184/594 100/190/594
f 572/709/595 571/707/595 107/188/595 108/161/595
f 565/710/596 564/708/596 100/190/596 101/165/596
f 573/711/597 572/709/597 108/161/597 578/160/597
